<svg width="507" height="378" viewBox="0 0 507 378" fill="none" xmlns="http://www.w3.org/2000/svg">
<path d="M507 332.018H0V332.271H507V332.018Z" fill="#EBEBEB"/>
<path d="M456.198 348.333H422.615V348.586H456.198V348.333Z" fill="#EBEBEB"/>
<path d="M335.857 351.091H327.045V351.344H335.857V351.091Z" fill="#EBEBEB"/>
<path d="M421.601 338.923H402.142V339.176H421.601V338.923Z" fill="#EBEBEB"/>
<path d="M96.9892 340.626H53.1946V340.88H96.9892V340.626Z" fill="#EBEBEB"/>
<path d="M112.443 340.626H106.024V340.88H112.443V340.626Z" fill="#EBEBEB"/>
<path d="M228.302 344.905H133.311V345.159H228.302V344.905Z" fill="#EBEBEB"/>
<path d="M240.318 286.793H44.5247C42.9908 286.79 41.5208 286.179 40.4371 285.094C39.3535 284.008 38.7449 282.537 38.7449 281.003V5.77321C38.7582 4.24818 39.3727 2.79 40.4549 1.7154C41.5371 0.640803 42.9996 0.0365785 44.5247 0.0339661H240.318C241.854 0.0339661 243.326 0.643976 244.412 1.7298C245.498 2.81562 246.108 4.28832 246.108 5.8239V281.003C246.108 282.539 245.498 284.012 244.412 285.097C243.326 286.183 241.854 286.793 240.318 286.793ZM44.5247 0.236767C43.0581 0.239453 41.6525 0.823938 40.6164 1.86193C39.5803 2.89992 38.9984 4.30661 38.9984 5.77321V281.003C38.9984 282.47 39.5803 283.876 40.6164 284.914C41.6525 285.952 43.0581 286.537 44.5247 286.54H240.318C241.785 286.537 243.192 285.953 244.23 284.915C245.268 283.877 245.852 282.471 245.854 281.003V5.77321C245.852 4.30567 245.268 2.89902 244.23 1.86131C243.192 0.823609 241.785 0.239447 240.318 0.236767H44.5247Z" fill="#EBEBEB"/>
<path d="M459.656 286.793H263.853C262.318 286.79 260.847 286.18 259.762 285.094C258.677 284.009 258.066 282.538 258.063 281.003V5.77321C258.079 4.24725 258.696 2.78908 259.78 1.71477C260.863 0.640448 262.327 0.03655 263.853 0.0339661H459.656C461.18 0.0392434 462.64 0.644647 463.72 1.71896C464.8 2.79327 465.413 4.24993 465.426 5.77321V281.003C465.426 282.535 464.819 284.005 463.737 285.09C462.656 286.175 461.188 286.788 459.656 286.793ZM263.853 0.236767C262.385 0.239447 260.979 0.823609 259.941 1.86131C258.903 2.89902 258.319 4.30567 258.316 5.77321V281.003C258.319 282.471 258.903 283.877 259.941 284.915C260.979 285.953 262.385 286.537 263.853 286.54H459.656C461.124 286.537 462.531 285.953 463.568 284.915C464.606 283.877 465.19 282.471 465.193 281.003V5.77321C465.19 4.30567 464.606 2.89902 463.568 1.86131C462.531 0.823609 461.124 0.239447 459.656 0.236767H263.853Z" fill="#EBEBEB"/>
<path d="M303.014 39.7522C303.014 38.4533 302.498 37.2076 301.579 36.2891C300.661 35.3706 299.415 34.8546 298.116 34.8546C297.639 34.8545 297.164 34.9228 296.707 35.0574C296.926 33.5837 296.824 32.08 296.408 30.6492C295.993 29.2184 295.273 27.8942 294.299 26.7669C293.325 25.6396 292.119 24.7359 290.763 24.1175C289.408 23.499 287.935 23.1804 286.445 23.1835C285.806 23.1841 285.168 23.2418 284.539 23.3558C283.523 21.6597 281.981 20.342 280.147 19.6035C278.313 18.8651 276.288 18.7464 274.381 19.2655C272.473 19.7846 270.788 20.913 269.581 22.4789C268.374 24.0448 267.712 25.9622 267.696 27.9391H267.544C265.328 27.9391 263.203 28.8194 261.636 30.3864C260.069 31.9533 259.189 34.0785 259.189 36.2945C259.189 38.5105 260.069 40.6357 261.636 42.2026C263.203 43.7696 265.328 44.6499 267.544 44.6499H298.228C299.508 44.6233 300.727 44.0953 301.622 43.1794C302.517 42.2635 303.017 41.0328 303.014 39.7522Z" fill="#F5F5F5"/>
<path d="M233.96 64.9299C233.96 64.2818 233.703 63.6603 233.245 63.202C232.786 62.7437 232.165 62.4862 231.517 62.4862C231.28 62.4836 231.044 62.5178 230.817 62.5876C230.849 62.3388 230.866 62.0882 230.868 61.8372C230.869 61.1559 230.736 60.4811 230.476 59.8512C230.216 59.2214 229.835 58.649 229.354 58.1668C228.872 57.6846 228.301 57.302 227.671 57.041C227.042 56.7799 226.367 56.6456 225.686 56.6456C225.363 56.6448 225.04 56.6754 224.723 56.7368C224.212 55.8959 223.442 55.2441 222.528 54.8797C221.614 54.5153 220.606 54.4582 219.657 54.717C218.708 54.9757 217.868 55.5364 217.266 56.3142C216.663 57.092 216.33 58.0447 216.317 59.0285H216.246C215.138 59.0285 214.075 59.4686 213.292 60.2521C212.508 61.0355 212.068 62.0982 212.068 63.2062C212.068 64.3141 212.508 65.3767 213.292 66.1602C214.075 66.9437 215.138 67.3838 216.246 67.3838H231.588C232.226 67.3679 232.832 67.1017 233.276 66.6426C233.72 66.1836 233.966 65.5685 233.96 64.9299Z" fill="#F5F5F5"/>
<path d="M95.681 147.307C95.6812 146.668 95.4307 146.054 94.9833 145.597C94.5359 145.14 93.9273 144.877 93.288 144.864C93.0509 144.86 92.8147 144.894 92.5883 144.965C92.6038 144.715 92.6038 144.464 92.5883 144.215C92.5883 142.838 92.0414 141.517 91.0677 140.544C90.0941 139.57 88.7736 139.023 87.3967 139.023C87.0768 139.023 86.7576 139.053 86.4435 139.114C85.9252 138.292 85.1563 137.658 84.2502 137.306C83.3441 136.954 82.3489 136.902 81.4113 137.159C80.4738 137.416 79.6437 137.967 79.0435 138.732C78.4433 139.497 78.1048 140.434 78.078 141.406H78.007C76.899 141.406 75.8364 141.846 75.053 142.629C74.2695 143.413 73.8293 144.476 73.8293 145.583C73.8293 146.691 74.2695 147.754 75.053 148.538C75.8364 149.321 76.899 149.761 78.007 149.761H93.288C93.9299 149.751 94.5416 149.487 94.9898 149.027C95.438 148.567 95.6865 147.949 95.681 147.307Z" fill="#F5F5F5"/>
<path d="M426.448 148.301C426.448 147.65 426.189 147.026 425.729 146.566C425.269 146.106 424.645 145.847 423.994 145.847C423.756 145.848 423.52 145.885 423.294 145.959C423.327 145.706 423.344 145.452 423.345 145.198C423.345 143.824 422.799 142.506 421.827 141.534C420.856 140.563 419.538 140.017 418.163 140.017C417.84 140.016 417.518 140.046 417.2 140.108C416.692 139.264 415.922 138.61 415.008 138.244C414.094 137.878 413.086 137.82 412.136 138.079C411.186 138.338 410.346 138.901 409.745 139.68C409.144 140.46 408.813 141.415 408.804 142.4H408.723C407.615 142.4 406.552 142.84 405.769 143.623C404.986 144.407 404.545 145.469 404.545 146.577C404.545 147.685 404.986 148.748 405.769 149.531C406.552 150.315 407.615 150.755 408.723 150.755H424.065C424.703 150.736 425.309 150.47 425.754 150.012C426.199 149.553 426.448 148.94 426.448 148.301Z" fill="#F5F5F5"/>
<path d="M168.608 39.9754C168.608 39.5538 168.525 39.1363 168.363 38.7469C168.202 38.3574 167.965 38.0038 167.666 37.7061C167.367 37.4084 167.013 37.1726 166.623 37.0122C166.233 36.8517 165.815 36.7698 165.394 36.7712C165.081 36.7675 164.77 36.8119 164.471 36.903C164.522 36.5674 164.546 36.2284 164.542 35.889C164.543 34.9951 164.368 34.1098 164.027 33.2837C163.685 32.4576 163.184 31.707 162.552 31.0749C161.92 30.4428 161.169 29.9417 160.343 29.6003C159.517 29.2588 158.632 29.0837 157.738 29.0851C157.319 29.0844 156.901 29.1251 156.491 29.2067C155.82 28.1008 154.806 27.2439 153.604 26.7664C152.402 26.2889 151.077 26.2167 149.83 26.5608C148.583 26.905 147.482 27.6466 146.695 28.6732C145.908 29.6998 145.477 30.9552 145.469 32.2487H145.367C143.915 32.2487 142.522 32.8256 141.495 33.8525C140.468 34.8794 139.892 36.2721 139.892 37.7243C139.892 39.1766 140.468 40.5693 141.495 41.5962C142.522 42.623 143.915 43.1999 145.367 43.1999H165.485C166.323 43.1761 167.119 42.8256 167.703 42.2232C168.286 41.6207 168.611 40.8141 168.608 39.9754Z" fill="#F5F5F5"/>
<path d="M408.642 117.019C408.809 116.396 408.908 115.757 408.936 115.113C409.169 111.158 412.941 111.787 416.146 111.249C418.65 110.834 412.019 104.506 417.068 102.458C418.052 102.194 418.913 101.595 419.502 100.765C419.759 100.144 419.79 99.4532 419.59 98.8121C419.39 98.1711 418.971 97.6205 418.407 97.2563C417.252 96.5652 415.918 96.2302 414.574 96.2929C413.742 95.2789 414.422 93.7884 415.213 92.7642C416.004 91.7401 416.987 90.574 416.683 89.3166C416.227 87.4103 413.57 87.2886 411.613 87.7145C410.903 86.5585 410.913 85.1187 410.599 83.8106C410.285 82.5025 409.22 81.1336 407.871 81.2959C406.523 81.4581 405.843 82.8777 404.596 83.1718C403.156 83.5166 401.909 82.2389 400.783 81.2858C399.658 80.3326 397.67 79.7343 396.9 80.9917C396.433 81.742 396.707 82.7966 396.22 83.5368C395.389 84.8246 393.391 84.0235 392.164 83.1109C390.938 82.1983 388.96 81.377 388.108 82.6445C387.888 83.0602 387.724 83.5035 387.622 83.9627C387.044 85.646 385.219 86.4876 383.799 87.5725C382.379 88.6575 381.254 90.8072 382.45 92.1254C383.049 92.7744 384.093 93.038 384.387 93.8695C384.752 94.8835 383.698 95.8366 382.856 96.5464C381.457 97.7328 381.203 101.292 383.049 102.255C383.829 102.671 384.965 102.793 385.148 103.644C385.33 104.496 384.549 105.003 384.032 105.591C383.705 106.01 383.473 106.494 383.352 107.011C383.231 107.528 383.223 108.065 383.331 108.584C383.438 109.104 383.656 109.595 383.972 110.022C384.287 110.449 384.692 110.802 385.158 111.057C385.594 111.27 386.172 111.442 386.304 111.909C386.371 112.249 386.336 112.602 386.202 112.923C386.013 113.581 385.951 114.269 386.02 114.951C386.02 115.18 386.107 115.401 386.263 115.569C386.436 115.686 386.643 115.743 386.851 115.731C389.518 115.853 390.796 114.91 392.428 117.222C392.567 117.461 392.757 117.665 392.986 117.82C393.213 117.933 393.462 117.995 393.716 118.003C395.551 118.155 396.758 116.989 398.421 116.796C400.743 116.502 401.24 117.698 403.278 118.662C406.442 120.142 408.003 119.209 408.642 117.019Z" fill="#F5F5F5"/>
<path d="M377.908 113.693C378.076 113.074 378.174 112.438 378.202 111.797C378.435 107.842 382.207 108.471 385.411 107.934C387.916 107.518 381.284 101.191 386.334 99.1422C387.318 98.8786 388.179 98.2796 388.768 97.4488C389.027 96.8286 389.059 96.137 388.859 95.4954C388.658 94.8538 388.238 94.3032 387.673 93.9404C386.523 93.2316 385.189 92.8788 383.84 92.9264C383.008 91.9124 383.677 90.4218 384.479 89.3977C385.28 88.3735 386.253 87.2074 385.949 85.9501C385.493 84.0438 382.836 83.9728 380.879 84.348C380.169 83.192 380.179 81.7521 379.865 80.4441C379.55 79.136 378.486 77.7671 377.137 77.9293C375.789 78.0916 375.109 79.5112 373.862 79.8052C372.422 80.1399 371.175 78.8724 370.039 77.9192C368.903 76.966 366.936 76.3678 366.156 77.6251C365.689 78.3755 365.973 79.4301 365.486 80.1703C364.645 81.4581 362.657 80.657 361.43 79.7444C360.203 78.8318 358.226 78.0105 357.374 79.2678C357.155 79.6877 356.992 80.1342 356.888 80.5962C356.31 82.2794 354.484 83.121 353.065 84.206C351.645 85.291 350.52 87.4305 351.716 88.7589C352.314 89.4078 353.359 89.6715 353.653 90.5029C354.018 91.5169 352.953 92.4701 352.122 93.1799C350.722 94.3663 350.469 97.9254 352.314 98.8887C353.095 99.3045 354.231 99.4261 354.413 100.278C354.596 101.13 353.815 101.637 353.298 102.225C352.971 102.643 352.739 103.127 352.618 103.644C352.497 104.161 352.489 104.698 352.596 105.218C352.703 105.738 352.922 106.228 353.238 106.655C353.553 107.082 353.958 107.435 354.424 107.69C354.86 107.903 355.438 108.076 355.569 108.542C355.639 108.882 355.604 109.236 355.468 109.556C355.28 110.215 355.218 110.903 355.285 111.584C355.283 111.817 355.37 112.042 355.529 112.213C355.702 112.33 355.908 112.387 356.117 112.375C358.774 112.497 360.061 111.554 361.694 113.865C361.83 114.1 362.017 114.301 362.241 114.454C362.472 114.568 362.724 114.634 362.982 114.646C364.817 114.788 366.024 113.632 367.687 113.44C370.009 113.135 370.495 114.342 372.544 115.295C375.748 116.826 377.31 115.893 377.908 113.693Z" fill="#F5F5F5"/>
<path d="M374.957 94.1533C375.116 93.5292 375.211 92.8905 375.241 92.247C375.474 88.2924 379.246 88.9211 382.45 88.3837C384.955 87.9679 378.323 81.6406 383.373 79.5923C384.358 79.3261 385.221 78.7279 385.817 77.8989C386.069 77.2767 386.096 76.5863 385.894 75.9461C385.693 75.3059 385.274 74.7559 384.711 74.3905C383.557 73.6979 382.223 73.366 380.879 73.4373C380.057 72.4233 380.726 70.9226 381.517 69.8984C382.308 68.8743 383.292 67.7183 382.998 66.4508C382.541 64.5445 379.875 64.4837 377.928 64.8487C377.218 63.7029 377.238 62.263 376.914 60.955C376.589 59.6469 375.525 58.2679 374.186 58.4301C372.848 58.5923 372.158 60.0119 370.901 60.306C369.461 60.6508 368.214 59.3731 367.088 58.42C365.963 57.4668 363.975 56.8685 363.205 58.1259C362.738 58.8763 363.012 59.9308 362.525 60.671C361.694 61.9588 359.696 61.1578 358.469 60.2452C357.242 59.3326 355.265 58.5112 354.413 59.7787C354.196 60.1948 354.036 60.6382 353.937 61.0969C353.348 62.7802 351.523 63.6218 350.104 64.7068C348.684 65.7917 347.559 67.9414 348.765 69.2596C349.353 69.9086 350.398 70.1722 350.692 71.0037C351.057 72.0177 350.002 72.9709 349.161 73.6807C347.761 74.867 347.508 78.4262 349.353 79.3996C350.134 79.8052 351.27 79.9269 351.462 80.7787C351.655 81.6304 350.854 82.1374 350.337 82.7357C350.013 83.1543 349.784 83.6379 349.665 84.1533C349.546 84.6687 349.539 85.2038 349.646 85.7219C349.753 86.24 349.971 86.7289 350.284 87.1551C350.598 87.5812 351 87.9346 351.462 88.191C351.909 88.4039 352.476 88.5763 352.608 89.0428C352.676 89.3833 352.641 89.7364 352.507 90.0568C352.324 90.6989 352.262 91.3693 352.324 92.0341C352.334 92.2617 352.419 92.4796 352.568 92.6526C352.742 92.7658 352.948 92.8224 353.156 92.8148C355.823 92.9365 357.11 91.9935 358.733 94.3156C358.872 94.5511 359.063 94.7522 359.29 94.9037C359.518 95.0163 359.767 95.0786 360.021 95.0862C361.856 95.2383 363.063 94.0722 364.726 93.8795C367.048 93.5855 367.544 94.782 369.593 95.7453C372.787 97.2764 374.348 96.3638 374.957 94.1533Z" fill="#F5F5F5"/>
<path d="M354.738 103.888C354.898 103.264 354.993 102.625 355.022 101.981C355.255 98.037 359.027 98.6556 362.231 98.1283C364.736 97.7024 358.104 91.3751 363.154 89.3369C364.139 89.0636 365 88.4627 365.598 87.6334C365.851 87.013 365.879 86.3235 365.677 85.6846C365.475 85.0456 365.056 84.4974 364.492 84.1351C363.341 83.4349 362.005 83.0991 360.659 83.1718C359.838 82.1578 360.507 80.6571 361.298 79.6329C362.089 78.6088 363.073 77.4528 362.769 76.1853C362.312 74.279 359.656 74.2182 357.699 74.5832C356.989 73.4374 357.009 71.9975 356.685 70.6895C356.36 69.3814 355.295 68.0024 353.957 68.1747C352.618 68.3471 351.929 69.7566 350.672 70.0405C349.232 70.3853 347.984 69.1076 346.859 68.1545C345.733 67.2013 343.746 66.603 342.975 67.8604C342.509 68.6108 342.783 69.6653 342.296 70.4055C341.464 71.6933 339.467 70.8923 338.24 69.9797C337.013 69.0671 335.036 68.2457 334.184 69.5132C333.967 69.9293 333.806 70.3727 333.707 70.8314C333.119 72.5147 331.294 73.3563 329.874 74.4413C328.455 75.5262 327.329 77.6759 328.536 78.9941C329.124 79.6431 330.168 79.9067 330.463 80.7382C330.828 81.7522 329.773 82.7054 328.931 83.4253C327.532 84.6117 327.279 88.1607 329.124 89.1341C329.905 89.5397 331.04 89.6614 331.233 90.5233C331.426 91.3852 330.625 91.8821 330.108 92.4702C329.782 92.8882 329.552 93.3717 329.432 93.8875C329.312 94.4032 329.305 94.9389 329.412 95.4575C329.519 95.9762 329.737 96.4654 330.051 96.8915C330.366 97.3176 330.769 97.6704 331.233 97.9255C331.669 98.1384 332.247 98.3108 332.379 98.7773C332.447 99.1178 332.412 99.4709 332.278 99.7913C332.096 100.434 332.034 101.104 332.095 101.769C332.104 101.996 332.19 102.214 332.338 102.387C332.513 102.5 332.718 102.557 332.927 102.549C335.593 102.671 336.871 101.728 338.504 104.05C338.643 104.286 338.833 104.487 339.061 104.638C339.287 104.755 339.537 104.818 339.791 104.821C341.627 104.973 342.833 103.807 344.496 103.614C346.818 103.32 347.315 104.517 349.363 105.48C352.568 107.011 354.129 106.078 354.738 103.888Z" fill="#F5F5F5"/>
<path d="M334.296 99.4058C334.454 98.7846 334.552 98.1497 334.59 97.5097C334.823 93.5551 338.595 94.1837 341.799 93.6463C344.304 93.2306 337.672 86.9032 342.722 84.8549C343.703 84.5851 344.562 83.9875 345.156 83.1616C345.414 82.5413 345.447 81.8497 345.246 81.2081C345.046 80.5665 344.626 80.016 344.06 79.6531C342.905 78.9632 341.572 78.6283 340.228 78.6898C339.396 77.6758 340.065 76.1852 340.866 75.1611C341.667 74.137 342.641 72.9709 342.337 71.7135C341.88 69.8072 339.224 69.6855 337.267 70.1114C336.557 68.9554 336.567 67.5155 336.253 66.2075C335.938 64.8994 334.874 63.5305 333.525 63.6928C332.176 63.855 331.497 65.2746 330.25 65.5687C328.81 65.9033 327.563 64.6358 326.427 63.6826C325.291 62.7295 323.324 62.1211 322.543 63.3886C322.077 64.1389 322.361 65.1935 321.874 65.9337C321.032 67.2215 319.045 66.4204 317.818 65.5078C316.591 64.5952 314.614 63.7637 313.762 65.0312C313.546 65.4515 313.386 65.898 313.286 66.3596C312.708 68.0428 310.882 68.8844 309.463 69.9694C308.043 71.0544 306.918 73.194 308.114 74.5223C308.712 75.1713 309.747 75.4349 310.051 76.2664C310.416 77.2804 309.351 78.2335 308.52 78.9433C307.12 80.1297 306.867 83.6888 308.712 84.6521C309.483 85.0679 310.629 85.1896 310.811 86.0413C310.994 86.8931 310.213 87.4001 309.696 87.9882C309.37 88.4064 309.139 88.8901 309.018 89.4062C308.897 89.9223 308.889 90.4584 308.995 90.9777C309.101 91.4971 309.319 91.9873 309.632 92.4147C309.946 92.8421 310.348 93.1966 310.811 93.4537C311.258 93.6666 311.825 93.839 311.967 94.3054C312.037 94.6459 312.002 94.9995 311.866 95.3194C311.684 95.9618 311.623 96.632 311.683 97.2967C311.681 97.5297 311.768 97.7546 311.927 97.9254C312.097 98.041 312.3 98.098 312.505 98.0876C315.172 98.2093 316.459 97.2663 318.092 99.5782C318.228 99.8131 318.415 100.014 318.639 100.166C318.869 100.283 319.122 100.345 319.38 100.349C321.215 100.501 322.422 99.3349 324.085 99.1523C326.407 98.8481 326.893 100.045 328.942 101.008C332.136 102.519 333.697 101.586 334.296 99.4058Z" fill="#F5F5F5"/>
<path d="M334.032 121.248C334.16 120.757 334.234 120.254 334.255 119.747C334.437 116.644 337.408 117.131 339.933 116.705C341.911 116.37 336.689 111.391 340.663 109.779C341.438 109.568 342.115 109.095 342.58 108.441C342.783 107.953 342.807 107.409 342.65 106.905C342.492 106.401 342.162 105.968 341.718 105.683C340.803 105.131 339.743 104.866 338.676 104.922C338.027 104.141 338.554 102.955 339.183 102.144C339.812 101.333 340.582 100.42 340.339 99.4262C339.984 97.9255 337.885 97.8748 336.374 98.1689C335.957 97.1992 335.68 96.1748 335.553 95.1269C335.279 94.1129 334.458 93.0178 333.403 93.1496C332.349 93.2814 331.801 94.3968 330.828 94.6199C329.692 94.8937 328.708 93.8898 327.786 93.1293C326.863 92.3688 325.342 91.9125 324.744 92.9062C324.379 93.4943 324.602 94.3258 324.216 94.9342C323.557 95.9482 321.996 95.3195 321.022 94.5996C320.049 93.8797 318.497 93.2408 317.808 94.2346C317.642 94.5562 317.516 94.8967 317.433 95.2486C316.976 96.5769 315.537 97.2766 314.391 98.0979C313.245 98.9192 312.363 100.643 313.326 101.677C313.803 102.194 314.614 102.397 314.847 103.056C315.141 103.868 314.31 104.608 313.65 105.165C312.545 106.098 312.342 108.897 313.803 109.658C314.411 109.982 315.303 110.083 315.455 110.753C315.608 111.422 314.979 111.827 314.573 112.294C314.318 112.623 314.136 113.004 314.042 113.41C313.947 113.816 313.942 114.238 314.025 114.646C314.109 115.055 314.28 115.44 314.527 115.776C314.774 116.112 315.091 116.391 315.455 116.593C315.81 116.755 316.236 116.897 316.368 117.263C316.422 117.536 316.39 117.819 316.277 118.074C316.137 118.578 316.092 119.104 316.145 119.625C316.141 119.714 316.156 119.803 316.187 119.887C316.218 119.971 316.266 120.047 316.327 120.112C316.464 120.207 316.628 120.253 316.794 120.244C318.893 120.335 319.897 119.595 321.184 121.42C321.294 121.605 321.443 121.764 321.621 121.886C321.799 121.98 321.997 122.028 322.198 122.028C323.638 122.15 324.581 121.248 325.9 121.085C327.735 120.852 328.12 121.795 329.733 122.545C332.328 123.742 333.606 122.971 334.032 121.248Z" fill="#F5F5F5"/>
<path d="M322.584 113.693C322.743 113.072 322.838 112.437 322.868 111.797C323.101 107.842 326.873 108.471 330.077 107.934C332.582 107.518 325.95 101.191 331 99.1422C331.985 98.876 332.848 98.2779 333.444 97.4488C333.697 96.8269 333.726 96.1358 333.524 95.4952C333.322 94.8545 332.903 94.3045 332.338 93.9404C331.189 93.2316 329.855 92.8788 328.505 92.9264C327.684 91.9124 328.353 90.4218 329.144 89.3977C329.935 88.3735 330.919 87.2074 330.625 85.9501C330.168 84.0438 327.502 83.9728 325.555 84.348C324.845 83.192 324.865 81.7521 324.541 80.4441C324.216 79.136 323.151 77.7671 321.813 77.9293C320.475 78.0916 319.785 79.5112 318.528 79.8052C317.088 80.1399 315.841 78.8724 314.715 77.9192C313.589 76.966 311.612 76.3678 310.831 77.6251C310.365 78.3755 310.639 79.4301 310.162 80.1703C309.321 81.4581 307.333 80.657 306.106 79.7444C304.879 78.8318 302.902 78.0105 302.05 79.2678C301.834 79.6881 301.674 80.1346 301.574 80.5962C300.985 82.2794 299.16 83.121 297.741 84.206C296.321 85.291 295.196 87.4305 296.402 88.7589C296.99 89.4078 298.035 89.6715 298.329 90.5029C298.694 91.5169 297.639 92.4701 296.798 93.1799C295.398 94.3663 295.155 97.9254 296.99 98.8887C297.771 99.3045 298.907 99.4261 299.099 100.278C299.292 101.13 298.491 101.637 297.974 102.225C297.65 102.644 297.421 103.129 297.302 103.645C297.182 104.161 297.176 104.697 297.283 105.216C297.39 105.735 297.607 106.224 297.921 106.651C298.234 107.078 298.636 107.433 299.099 107.69C299.546 107.903 300.113 108.076 300.245 108.542C300.315 108.882 300.28 109.236 300.144 109.556C299.954 110.214 299.896 110.903 299.971 111.584C299.967 111.816 300.05 112.04 300.205 112.213C300.379 112.326 300.585 112.382 300.793 112.375C303.46 112.497 304.747 111.554 306.37 113.865C306.509 114.101 306.7 114.302 306.927 114.454C307.154 114.569 307.403 114.635 307.658 114.646C309.493 114.788 310.7 113.632 312.363 113.44C314.685 113.135 315.181 114.342 317.23 115.295C320.424 116.826 321.975 115.893 322.584 113.693Z" fill="#F5F5F5"/>
<path d="M354.738 79.8458C354.897 79.2218 354.992 78.583 355.022 77.9395C355.255 73.9849 359.027 74.6136 362.231 74.0762C364.736 73.6604 358.104 67.3331 363.154 65.2848C364.139 65.0186 365.002 64.4205 365.598 63.5914C365.849 62.9693 365.877 62.2788 365.675 61.6386C365.474 60.9985 365.055 60.4484 364.492 60.083C363.343 59.3742 362.009 59.0214 360.659 59.069C359.838 58.055 360.507 56.5644 361.298 55.5403C362.089 54.5161 363.073 53.35 362.769 52.0927C362.312 50.1863 359.656 50.0647 357.699 50.4905C356.989 49.3346 357.009 47.9048 356.685 46.5968C356.36 45.2887 355.295 43.9097 353.957 44.0719C352.618 44.2342 351.929 45.6538 350.672 45.9478C349.232 46.2926 347.984 45.0149 346.859 44.0618C345.733 43.1086 343.746 42.5104 342.975 43.7677C342.509 44.5181 342.783 45.5726 342.296 46.3129C341.464 47.6006 339.467 46.7996 338.24 45.887C337.013 44.9744 335.036 44.153 334.184 45.4205C333.967 45.8366 333.806 46.28 333.707 46.7387C333.119 48.422 331.294 49.2636 329.874 50.3486C328.455 51.4336 327.329 53.5832 328.536 54.9014C329.124 55.5504 330.168 55.814 330.463 56.6455C330.828 57.6595 329.773 58.6127 328.931 59.3225C327.532 60.5089 327.279 64.068 329.124 65.0414C329.905 65.447 331.04 65.5687 331.233 66.4205C331.426 67.2722 330.625 67.7792 330.108 68.3775C329.782 68.7955 329.552 69.279 329.432 69.7948C329.312 70.3105 329.305 70.8462 329.412 71.3648C329.519 71.8835 329.737 72.3727 330.051 72.7988C330.366 73.2249 330.769 73.5777 331.233 73.8328C331.669 74.0458 332.247 74.2181 332.379 74.6846C332.447 75.0251 332.412 75.3782 332.278 75.6986C332.095 76.3407 332.033 77.0112 332.095 77.6759C332.104 77.9035 332.19 78.1214 332.338 78.2944C332.513 78.4076 332.718 78.4642 332.927 78.4567C335.593 78.5783 336.871 77.6353 338.504 79.9472C338.642 80.1859 338.833 80.3903 339.061 80.5455C339.289 80.6581 339.538 80.7204 339.791 80.728C341.627 80.8801 342.833 79.714 344.496 79.5214C346.818 79.2273 347.315 80.4238 349.363 81.3871C352.568 82.969 354.129 82.0361 354.738 79.8458Z" fill="#F5F5F5"/>
<path d="M380.99 81.154C381.151 80.53 381.246 79.8912 381.274 79.2476C381.508 75.3032 385.28 75.9319 388.484 75.3945C390.988 74.9686 384.357 68.6412 389.407 66.6031C390.391 66.3297 391.253 65.7288 391.85 64.8996C392.104 64.2791 392.132 63.5897 391.93 62.9507C391.728 62.3117 391.309 61.7636 390.745 61.4013C389.597 60.6879 388.262 60.3348 386.912 60.3873C386.091 59.3733 386.76 57.8725 387.551 56.8585C388.342 55.8445 389.325 54.6683 389.021 53.4008C388.565 51.5046 385.908 51.4336 383.951 51.7987C383.241 50.6529 383.262 49.213 382.937 47.9049C382.613 46.5969 381.548 45.228 380.21 45.3902C378.871 45.5524 378.182 46.972 376.924 47.2661C375.484 47.6007 374.237 46.3231 373.112 45.3699C371.986 44.4168 369.999 43.8185 369.228 45.0759C368.762 45.8364 369.035 46.8808 368.549 47.621C367.717 48.9088 365.72 48.1077 364.493 47.2053C363.266 46.3028 361.288 45.4612 360.437 46.7287C360.219 47.1448 360.059 47.5881 359.96 48.0469C359.372 49.7403 357.547 50.5717 356.127 51.6567C354.707 52.7417 353.582 54.8914 354.789 56.2096C355.377 56.8585 356.421 57.1222 356.715 57.9537C357.08 58.9677 356.026 59.9208 355.184 60.6408C353.785 61.8271 353.531 65.3761 355.377 66.3496C356.157 66.7552 357.293 66.887 357.486 67.7388C357.678 68.5905 356.877 69.0975 356.36 69.6856C356.035 70.1036 355.805 70.5872 355.684 71.1029C355.564 71.6187 355.557 72.1543 355.664 72.673C355.771 73.1916 355.99 73.6808 356.304 74.1069C356.619 74.533 357.022 74.8858 357.486 75.141C357.922 75.3539 358.5 75.5364 358.632 75.9927C358.7 76.3332 358.665 76.6865 358.53 77.0067C358.342 77.6651 358.28 78.3533 358.348 79.0347C358.346 79.2645 358.433 79.4861 358.591 79.6533C358.76 79.7781 358.97 79.8359 359.179 79.8155C361.846 79.9372 363.124 78.9942 364.756 81.3162C364.893 81.5538 365.084 81.7554 365.314 81.9043C365.54 82.0216 365.79 82.0841 366.044 82.0868C367.879 82.2389 369.086 81.0728 370.749 80.8802C373.071 80.5861 373.568 81.7827 375.616 82.746C378.82 84.3075 380.382 83.3746 380.99 81.154Z" fill="#F5F5F5"/>
<path d="M396.93 91.9226C397.088 91.3013 397.187 90.6664 397.224 90.0264C397.457 86.0718 401.219 86.7005 404.434 86.1631C406.938 85.7473 400.307 79.42 405.356 77.3717C406.339 77.1057 407.199 76.5073 407.79 75.6783C408.045 75.0575 408.075 74.3672 407.875 73.7267C407.675 73.0861 407.258 72.5355 406.695 72.1699C405.542 71.4609 404.205 71.1081 402.852 71.1559C402.031 70.1419 402.7 68.6513 403.501 67.6271C404.302 66.603 405.275 65.4369 404.971 64.1795C404.515 62.2732 401.858 62.1515 399.901 62.5774C399.191 61.4215 399.202 59.9816 398.887 58.6735C398.573 57.3655 397.508 55.9966 396.16 56.1588C394.811 56.321 394.131 57.7406 392.884 58.0347C391.444 58.3795 390.197 57.1018 389.062 56.1487C387.926 55.1955 385.959 54.5972 385.178 55.8546C384.711 56.605 384.995 57.6595 384.509 58.3997C383.667 59.6875 381.68 58.8865 380.453 57.9739C379.226 57.0613 377.248 56.2399 376.397 57.4973C376.181 57.9176 376.021 58.3641 375.92 58.8256C375.332 60.5089 373.517 61.3505 372.097 62.4355C370.678 63.5204 369.552 65.6701 370.749 66.9883C371.347 67.6373 372.381 67.9009 372.675 68.7324C373.05 69.7464 371.986 70.6996 371.154 71.4094C369.755 72.5957 369.501 76.1549 371.347 77.1182C372.118 77.5339 373.253 77.6556 373.446 78.5074C373.639 79.3591 372.838 79.8661 372.331 80.4542C372.005 80.8724 371.774 81.3562 371.653 81.8722C371.532 82.3883 371.524 82.9244 371.63 83.4438C371.736 83.9631 371.953 84.4533 372.267 84.8807C372.58 85.3081 372.982 85.6626 373.446 85.9197C373.892 86.1326 374.46 86.305 374.602 86.7715C374.673 87.1127 374.634 87.4679 374.49 87.7854C374.312 88.4457 374.253 89.1326 374.318 89.8134C374.318 90.0429 374.405 90.2637 374.561 90.432C374.731 90.5476 374.934 90.6046 375.139 90.5942C377.806 90.7159 379.094 89.7729 380.716 92.0848C380.861 92.3189 381.051 92.5222 381.274 92.6831C381.505 92.7945 381.757 92.8567 382.014 92.8656C383.839 93.0076 385.056 91.8516 386.719 91.6589C389.041 91.3547 389.528 92.5614 391.576 93.5146C394.77 95.0558 396.332 94.123 396.93 91.9226Z" fill="#F5F5F5"/>
<path d="M392.094 105.49C392.094 105.49 385.432 114.91 383.13 117.901C380.828 120.893 369.329 139.52 367.768 151.84C367.595 153.158 367.433 154.284 367.271 155.277C372.219 187.918 371.449 312.539 371.266 322.76H350.986C354.839 246.172 354.13 140.939 353.633 137.725C353.116 134.318 346.535 121.349 336.445 116.025C326.356 110.702 317.585 93.0684 317.585 93.0684H320.809C320.809 93.0684 326.792 103.878 335.3 109.86C336.523 110.696 337.8 111.452 339.122 112.121C339.102 105.619 340.249 99.1655 342.509 93.0684L344.253 94.6807C341.901 104.304 342.225 110.469 342.925 114.008C346.136 115.517 349.1 117.503 351.716 119.899C360.548 108.42 365.507 82.1781 365.507 82.1781L367.768 83.4152C367.121 88.8334 366.146 94.2074 364.847 99.5073C363.195 106.301 358.327 119.088 356.066 124.857C358.772 128.751 361.009 132.951 362.728 137.37C362.97 136.999 363.256 136.659 363.58 136.356C369.329 131.154 380.139 106.595 380.139 106.595C382.755 100.886 378.76 85.8994 378.76 85.8994H381.802L383.15 99.0105L390.735 90.7261L392.114 91.8821L384.073 102.225L379.926 115.336L390.715 103.462L392.094 105.49Z" fill="#F5F5F5"/>
<path d="M87.0923 124.198C86.9418 123.614 86.8501 123.016 86.8185 122.414C86.6056 118.692 83.0465 119.28 80.0247 118.773C77.6723 118.378 83.9185 112.415 79.1628 110.499C78.2371 110.239 77.426 109.675 76.8611 108.897C76.6201 108.314 76.5895 107.665 76.7745 107.062C76.9595 106.459 77.3486 105.939 77.8751 105.591C78.9646 104.936 80.2253 104.621 81.495 104.689C82.2657 103.746 81.637 102.326 80.8866 101.363C80.1363 100.4 79.2135 99.3349 79.4975 98.108C79.9335 96.3132 82.4381 96.2523 84.2531 96.6072C84.9224 95.5223 84.9021 94.1635 85.2671 92.9264C85.6322 91.6893 86.5752 90.4016 87.8427 90.5638C89.1102 90.726 89.7591 92.0544 90.8847 92.3282C92.2434 92.6425 93.4197 91.446 94.4844 90.5435C95.5491 89.641 97.4047 89.0834 98.1449 90.2697C98.5809 90.9795 98.3173 91.9631 98.7736 92.6628C99.5645 93.8796 101.44 93.1292 102.607 92.2673C103.773 91.4054 105.649 90.6348 106.439 91.8212C106.644 92.2159 106.797 92.635 106.896 93.0684C107.443 94.6604 109.157 95.4513 110.495 96.4653C111.834 97.4793 112.899 99.5073 111.763 100.754C111.205 101.373 110.222 101.616 109.948 102.397C109.593 103.411 110.597 104.253 111.388 104.922C112.696 106.048 112.939 109.394 111.205 110.306C110.475 110.692 109.4 110.803 109.177 111.614C108.954 112.426 109.755 112.892 110.191 113.45C110.5 113.841 110.72 114.294 110.837 114.778C110.954 115.262 110.965 115.765 110.868 116.254C110.772 116.742 110.571 117.204 110.279 117.608C109.987 118.011 109.611 118.346 109.177 118.591C108.762 118.794 108.244 118.956 108.092 119.392C108.017 119.732 108.053 120.087 108.194 120.406C108.362 121.009 108.421 121.638 108.366 122.261C108.365 122.48 108.281 122.69 108.133 122.85C107.975 122.966 107.78 123.021 107.585 123.002C105.071 123.113 103.864 122.231 102.333 124.411C102.198 124.632 102.018 124.822 101.805 124.969C101.591 125.077 101.356 125.136 101.116 125.141C99.3921 125.283 98.2565 124.208 96.6848 124.006C94.4945 123.722 94.0281 124.857 92.1015 125.76C89.1305 127.149 87.6602 126.267 87.0923 124.198Z" fill="#F5F5F5"/>
<path d="M116.002 121.075C115.849 120.488 115.761 119.886 115.738 119.28C115.515 115.569 111.966 116.157 108.944 115.65C106.582 115.255 112.828 109.292 108.072 107.366C107.147 107.111 106.335 106.55 105.77 105.774C105.53 105.191 105.499 104.542 105.684 103.939C105.869 103.336 106.258 102.816 106.784 102.468C107.87 101.812 109.128 101.498 110.394 101.566C111.175 100.623 110.536 99.2031 109.786 98.2398C109.036 97.2765 108.113 96.2118 108.397 94.9848C108.833 93.19 111.337 93.1292 113.152 93.4739C113.822 92.3991 113.812 91.0404 114.166 89.8033C114.521 88.5662 115.464 87.2784 116.732 87.4305C117.999 87.5826 118.648 88.9211 119.774 89.205C121.133 89.5194 122.309 88.3228 123.374 87.4204C124.438 86.5179 126.304 85.9602 127.034 87.1466C127.47 87.8564 127.206 88.84 127.663 89.5396C128.454 90.7564 130.33 90.0061 131.496 89.1442C132.662 88.2823 134.538 87.5116 135.329 88.698C135.537 89.0908 135.691 89.5105 135.785 89.9452C136.332 91.5271 138.056 92.3281 139.385 93.3421C140.713 94.3561 141.788 96.3841 140.652 97.6314C140.094 98.2499 139.111 98.4932 138.837 99.274C138.492 100.288 139.486 101.13 140.277 101.799C141.595 102.914 141.828 106.26 140.094 107.183C139.364 107.569 138.289 107.68 138.117 108.491C137.945 109.302 138.685 109.769 139.131 110.327C139.44 110.717 139.66 111.17 139.777 111.654C139.894 112.138 139.904 112.642 139.808 113.131C139.712 113.619 139.511 114.081 139.219 114.484C138.927 114.888 138.551 115.223 138.117 115.468C137.701 115.67 137.194 115.833 137.042 116.269C136.969 116.608 137 116.962 137.134 117.283C137.307 117.885 137.365 118.514 137.306 119.138C137.309 119.357 137.225 119.569 137.073 119.726C136.911 119.834 136.719 119.887 136.525 119.879C134.021 119.99 132.804 119.108 131.273 121.288C131.138 121.509 130.958 121.699 130.745 121.846C130.532 121.955 130.296 122.014 130.056 122.018C128.332 122.16 127.206 121.085 125.625 120.882C123.434 120.598 122.978 121.734 121.051 122.637C118.04 124.026 116.61 123.144 116.002 121.075Z" fill="#F5F5F5"/>
<path d="M118.79 102.661C118.639 102.077 118.547 101.479 118.516 100.876C118.303 97.1549 114.744 97.743 111.722 97.236C109.37 96.8406 115.616 90.8782 110.861 88.9618C109.934 88.7036 109.123 88.1388 108.559 87.3596C108.318 86.7766 108.287 86.1279 108.472 85.5248C108.657 84.9216 109.046 84.4017 109.573 84.054C110.664 83.4031 111.924 83.0892 113.193 83.1516C113.963 82.2085 113.335 80.7889 112.584 79.8256C111.834 78.8623 110.911 77.7976 111.195 76.5707C111.631 74.786 114.136 74.7151 115.951 75.07C116.62 73.985 116.6 72.6262 116.965 71.3892C117.33 70.1521 118.273 68.8643 119.54 69.0265C120.808 69.1888 121.457 70.5171 122.582 70.7909C123.941 71.1052 125.117 69.9087 126.182 69.0062C127.247 68.1038 129.102 67.5461 129.843 68.7325C130.279 69.4423 130.015 70.436 130.471 71.1255C131.262 72.3423 133.138 71.592 134.304 70.7301C135.47 69.8682 137.346 69.0975 138.137 70.2839C138.342 70.6786 138.495 71.0977 138.593 71.5311C139.141 73.1231 140.855 73.914 142.193 74.928C143.532 75.942 144.596 77.97 143.461 79.2172C142.903 79.8358 141.919 80.0791 141.646 80.8599C141.301 81.8739 142.295 82.7155 143.086 83.3848C144.404 84.5103 144.637 87.8565 142.903 88.7691C142.173 89.1544 141.098 89.266 140.875 90.0772C140.652 90.8884 141.453 91.3548 141.889 91.9125C142.196 92.3039 142.415 92.757 142.531 93.2407C142.647 93.7244 142.657 94.2274 142.561 94.7155C142.464 95.2035 142.264 95.665 141.973 96.0685C141.682 96.472 141.308 96.808 140.875 97.0535C140.459 97.2563 139.952 97.4185 139.79 97.8546C139.715 98.1947 139.75 98.55 139.891 98.8686C140.06 99.4751 140.119 100.107 140.064 100.734C140.062 100.95 139.979 101.156 139.831 101.312C139.673 101.429 139.478 101.483 139.283 101.464C136.768 101.576 135.562 100.694 134.03 102.874C133.896 103.095 133.716 103.285 133.503 103.432C133.289 103.54 133.053 103.598 132.814 103.604C131.09 103.746 129.954 102.671 128.383 102.468C126.192 102.194 125.726 103.32 123.799 104.222C120.828 105.612 119.358 104.729 118.79 102.661Z" fill="#F5F5F5"/>
<path d="M137.833 111.838C137.685 111.25 137.597 110.648 137.569 110.043C137.346 106.321 133.797 106.91 130.775 106.413C128.413 106.017 134.659 100.055 129.903 98.1283C128.977 97.8764 128.166 97.31 127.612 96.5262C127.369 95.9449 127.338 95.2972 127.523 94.6953C127.709 94.0933 128.099 93.5752 128.626 93.2307C129.712 92.5765 130.968 92.2589 132.236 92.3181C133.016 91.3751 132.377 89.9555 131.627 88.9922C130.877 88.0289 129.954 86.9642 130.248 85.7474C130.674 83.9526 133.179 83.8917 134.994 84.2365C135.663 83.1515 135.653 81.7928 136.008 80.5658C136.362 79.3389 137.306 78.041 138.573 78.1931C139.841 78.3452 140.489 79.6836 141.615 79.9574C142.964 80.2819 144.14 79.0752 145.205 78.1829C146.269 77.2906 148.135 76.7126 148.865 77.899C149.301 78.6088 149.037 79.6025 149.494 80.3022C150.285 81.5088 152.161 80.7585 153.327 79.9067C154.493 79.055 156.369 78.264 157.16 79.4606C157.368 79.8498 157.522 80.2661 157.616 80.6976C158.163 82.2896 159.887 83.0805 161.226 84.1047C162.564 85.1288 163.619 87.1467 162.483 88.3939C161.925 89.0023 160.942 89.2558 160.668 90.0366C160.323 91.0506 161.317 91.8821 162.108 92.5614C163.426 93.6768 163.659 97.023 161.925 97.9356C161.195 98.321 160.121 98.4426 159.948 99.2437C159.776 100.045 160.516 100.521 160.962 101.079C161.269 101.471 161.488 101.925 161.604 102.41C161.72 102.894 161.73 103.398 161.634 103.887C161.538 104.375 161.338 104.838 161.047 105.242C160.756 105.647 160.381 105.984 159.948 106.23C159.522 106.423 159.015 106.585 158.863 107.021C158.789 107.36 158.821 107.714 158.954 108.035C159.127 108.641 159.186 109.274 159.127 109.901C159.129 110.118 159.05 110.328 158.904 110.489C158.737 110.593 158.543 110.646 158.346 110.641C155.841 110.753 154.625 109.86 153.093 112.051C152.959 112.271 152.779 112.461 152.566 112.608C152.351 112.713 152.116 112.771 151.877 112.781C150.153 112.923 149.027 111.838 147.446 111.645C145.255 111.361 144.799 112.487 142.872 113.399C139.932 114.778 138.411 113.906 137.833 111.838Z" fill="#F5F5F5"/>
<path d="M157.089 107.599C156.933 107.013 156.841 106.411 156.815 105.804C156.592 102.083 153.043 102.681 150.021 102.174C147.659 101.779 153.915 95.8164 149.149 93.8898C148.222 93.6379 147.412 93.0715 146.858 92.2876C146.617 91.7061 146.587 91.059 146.772 90.4576C146.957 89.8562 147.346 89.338 147.872 88.9921C148.958 88.3375 150.215 88.0232 151.481 88.0897C152.262 87.1467 151.633 85.7271 150.883 84.7638C150.133 83.8005 149.21 82.7358 149.494 81.5088C149.92 79.7141 152.424 79.6532 154.239 79.998C154.909 78.913 154.899 77.5644 155.253 76.3273C155.608 75.0902 156.561 73.8024 157.819 73.9545C159.076 74.1066 159.745 75.4451 160.912 75.729C162.27 76.0434 163.436 74.8469 164.501 73.9444C165.566 73.0419 167.432 72.4842 168.162 73.6706C168.608 74.3804 168.344 75.364 168.8 76.0636C169.591 77.2804 171.467 76.5301 172.623 75.6682C173.779 74.8063 175.665 74.0255 176.466 75.222C176.669 75.6165 176.819 76.0358 176.912 76.4693C177.47 78.0511 179.184 78.842 180.522 79.8661C181.861 80.8903 182.915 82.9082 181.79 84.1554C181.232 84.7638 180.249 85.0173 179.965 85.7981C179.62 86.8121 180.624 87.6537 181.404 88.3229C182.723 89.4383 182.966 92.7845 181.222 93.7073C180.492 94.0824 179.427 94.2041 179.194 95.0153C178.961 95.8265 179.762 96.293 180.208 96.8405C180.517 97.2321 180.737 97.6859 180.854 98.1707C180.971 98.6555 180.982 99.1599 180.885 99.6492C180.789 100.139 180.588 100.601 180.296 101.006C180.004 101.41 179.628 101.746 179.194 101.992C178.778 102.184 178.261 102.357 178.109 102.793C178.042 103.117 178.077 103.453 178.21 103.756C178.375 104.363 178.43 104.995 178.373 105.622C178.375 105.839 178.295 106.049 178.15 106.21C177.984 106.318 177.789 106.371 177.592 106.362C175.087 106.474 173.87 105.591 172.339 107.771C172.211 107.994 172.034 108.185 171.822 108.329C171.604 108.437 171.366 108.496 171.123 108.502C169.399 108.643 168.273 107.569 166.701 107.366C164.511 107.082 164.045 108.218 162.118 109.12C159.127 110.56 157.657 109.668 157.089 107.599Z" fill="#F5F5F5"/>
<path d="M157.332 128.193C157.231 127.73 157.177 127.258 157.17 126.784C156.998 123.864 154.209 124.32 151.826 123.924C149.971 123.62 154.868 118.925 151.137 117.404C150.408 117.206 149.771 116.762 149.332 116.147C149.144 115.687 149.123 115.175 149.274 114.701C149.424 114.227 149.735 113.82 150.153 113.551C151.006 113.031 151.995 112.781 152.992 112.831C153.601 112.091 153.104 110.976 152.516 110.215C151.928 109.455 151.198 108.593 151.421 107.66C151.766 106.24 153.733 106.19 155.162 106.474C155.56 105.55 155.819 104.573 155.933 103.573C156.197 102.61 156.947 101.545 157.961 101.708C158.975 101.87 159.472 102.884 160.395 103.097C161.317 103.31 162.423 102.407 163.224 101.698C164.025 100.988 165.525 100.552 166.103 101.485C166.448 102.042 166.245 102.823 166.6 103.371C167.219 104.324 168.699 103.736 169.642 103.056C170.585 102.377 172.025 101.769 172.684 102.701C172.85 103.021 172.969 103.362 173.039 103.715C173.475 104.963 174.834 105.591 175.878 106.392C176.923 107.193 177.775 108.796 176.892 109.769C176.446 110.256 175.676 110.448 175.463 111.067C175.25 111.685 175.97 112.527 176.588 113.095C177.602 113.977 177.815 116.614 176.446 117.333C175.868 117.628 175.027 117.729 174.885 118.347C174.743 118.966 175.341 119.361 175.716 119.797C175.961 120.107 176.134 120.466 176.225 120.85C176.316 121.234 176.323 121.632 176.243 122.019C176.164 122.405 176.002 122.769 175.767 123.086C175.532 123.403 175.231 123.665 174.885 123.853C174.56 124.016 174.155 124.137 174.033 124.482C173.98 124.741 174.008 125.011 174.114 125.253C174.244 125.728 174.289 126.222 174.246 126.713C174.246 126.886 174.181 127.052 174.063 127.179C173.933 127.262 173.782 127.304 173.627 127.301C171.599 127.382 170.697 126.683 169.49 128.406C169.388 128.579 169.25 128.728 169.085 128.842C168.915 128.931 168.728 128.979 168.537 128.984C167.178 129.096 166.286 128.244 165.049 128.082C163.325 127.869 162.96 128.751 161.439 129.471C158.945 130.505 157.789 129.826 157.332 128.193Z" fill="#F5F5F5"/>
<path d="M168.121 121.075C167.97 120.487 167.878 119.886 167.847 119.28C167.634 115.569 164.075 116.157 161.054 115.65C158.701 115.255 164.947 109.292 160.192 107.366C159.266 107.111 158.455 106.55 157.89 105.774C157.649 105.191 157.618 104.542 157.803 103.939C157.988 103.336 158.377 102.816 158.904 102.468C159.993 101.813 161.254 101.498 162.524 101.566C163.294 100.623 162.666 99.2031 161.915 98.2398C161.165 97.2765 160.242 96.2118 160.526 94.9848C160.962 93.19 163.467 93.1292 165.282 93.4739C165.951 92.3991 165.931 91.0404 166.296 89.8033C166.661 88.5662 167.604 87.2784 168.871 87.4305C170.139 87.5826 170.788 88.9211 171.913 89.205C173.272 89.5194 174.448 88.3228 175.513 87.4204C176.578 86.5179 178.434 85.9602 179.174 87.1466C179.61 87.8564 179.346 88.84 179.802 89.5396C180.593 90.7564 182.469 90.0061 183.635 89.1442C184.801 88.2823 186.677 87.5116 187.468 88.698C187.673 89.0927 187.826 89.5118 187.925 89.9452C188.472 91.5271 190.186 92.3281 191.524 93.3421C192.863 94.3561 193.927 96.3841 192.792 97.6314C192.234 98.2499 191.25 98.4932 190.977 99.274C190.632 100.288 191.626 101.13 192.417 101.799C193.735 102.914 193.968 106.26 192.234 107.183C191.504 107.569 190.429 107.68 190.206 108.491C189.983 109.302 190.784 109.769 191.271 110.327C191.576 110.721 191.792 111.177 191.904 111.663C192.016 112.149 192.022 112.654 191.92 113.142C191.819 113.63 191.614 114.091 191.318 114.492C191.022 114.894 190.643 115.227 190.206 115.468C189.79 115.67 189.283 115.833 189.121 116.269C189.046 116.609 189.081 116.964 189.222 117.283C189.391 117.886 189.449 118.514 189.395 119.138C189.393 119.357 189.31 119.566 189.162 119.726C189 119.834 188.808 119.887 188.614 119.879C186.099 119.99 184.893 119.108 183.362 121.288C183.227 121.509 183.047 121.699 182.834 121.846C182.62 121.954 182.385 122.013 182.145 122.018C180.421 122.16 179.285 121.085 177.714 120.882C175.523 120.598 175.057 121.734 173.13 122.637C170.159 124.026 168.689 123.144 168.121 121.075Z" fill="#F5F5F5"/>
<path d="M137.833 89.1848C137.685 88.5969 137.597 87.9956 137.569 87.39C137.346 83.6788 133.797 84.2669 130.775 83.7599C128.413 83.3645 134.659 77.4021 129.903 75.4755C128.979 75.2239 128.17 74.6618 127.612 73.8835C127.369 73.3008 127.337 72.6514 127.522 72.0478C127.708 71.4441 128.098 70.9242 128.626 70.5779C129.711 69.9221 130.969 69.6077 132.236 69.6754C133.016 68.7324 132.378 67.3128 131.627 66.3495C130.877 65.3862 129.954 64.3215 130.248 63.0946C130.674 61.2998 133.179 61.239 134.994 61.5837C135.663 60.5089 135.653 59.1501 136.008 57.913C136.363 56.676 137.306 55.3882 138.573 55.5504C139.841 55.7127 140.49 57.041 141.615 57.3148C142.964 57.6291 144.14 56.4326 145.205 55.5301C146.269 54.6277 148.135 54.07 148.865 55.2564C149.301 55.9662 149.038 56.9497 149.494 57.6494C150.285 58.8662 152.161 58.1158 153.327 57.2539C154.493 56.392 156.369 55.6214 157.16 56.8078C157.368 57.2006 157.522 57.6203 157.616 58.055C158.164 59.647 159.887 60.4379 161.226 61.4519C162.564 62.4659 163.619 64.4939 162.483 65.7411C161.926 66.3597 160.942 66.603 160.668 67.3838C160.323 68.3978 161.317 69.2394 162.108 69.9087C163.426 71.0241 163.659 74.3703 161.926 75.293C161.195 75.6783 160.121 75.7899 159.948 76.6011C159.776 77.4123 160.516 77.8787 160.962 78.4364C161.269 78.8278 161.488 79.2808 161.604 79.7646C161.72 80.2483 161.73 80.7513 161.634 81.2394C161.538 81.7274 161.337 82.1889 161.046 82.5924C160.755 82.9959 160.381 83.3319 159.948 83.5774C159.522 83.7802 159.015 83.9424 158.863 84.3784C158.79 84.7178 158.821 85.0716 158.955 85.3924C159.151 85.9869 159.233 86.6129 159.198 87.2379C159.2 87.4551 159.121 87.6651 158.975 87.826C158.811 87.9372 158.615 87.9907 158.417 87.9781C155.913 88.0897 154.696 87.2075 153.165 89.3876C153.033 89.6106 152.853 89.8011 152.637 89.9453C152.424 90.0547 152.188 90.1136 151.948 90.1177C150.224 90.2596 149.098 89.1848 147.517 88.982C145.326 88.6981 144.87 89.8338 142.943 90.7362C139.932 92.1355 138.411 91.2939 137.833 89.1848Z" fill="#F5F5F5"/>
<path d="M113.112 90.4523C112.955 89.8658 112.864 89.264 112.838 88.6575C112.615 84.9362 109.066 85.5243 106.044 85.0274C103.682 84.632 109.938 78.6696 105.172 76.743C104.245 76.4911 103.435 75.9247 102.88 75.1409C102.64 74.5594 102.61 73.9123 102.795 73.3109C102.98 72.7095 103.369 72.1913 103.894 71.8454C104.981 71.1908 106.238 70.8764 107.504 70.943C108.285 69.9898 107.656 68.5702 106.906 67.6069C106.156 66.6436 105.233 65.5789 105.517 64.3621C105.943 62.5673 108.457 62.5065 110.262 62.8512C110.932 61.7663 110.921 60.4176 111.276 59.1806C111.631 57.9435 112.584 56.6557 113.842 56.8078C115.099 56.9599 115.768 58.2984 116.884 58.5722C118.243 58.8966 119.419 57.7001 120.483 56.7977C121.548 55.8952 123.404 55.3375 124.134 56.5239C124.58 57.2337 124.316 58.2173 124.773 58.9169C125.564 60.1337 127.44 59.3732 128.595 58.5215C129.751 57.6697 131.637 56.8788 132.439 58.0753C132.646 58.4678 132.796 58.8878 132.885 59.3225C133.442 60.9044 135.156 61.6953 136.495 62.7194C137.833 63.7436 138.888 65.7614 137.762 67.0086C137.204 67.617 136.221 67.8705 135.937 68.6513C135.592 69.6653 136.596 70.5069 137.387 71.1762C138.695 72.2916 138.938 75.6378 137.194 76.5504C136.464 76.9357 135.399 77.0574 135.166 77.8584C134.933 78.6595 135.734 79.1462 136.18 79.6938C136.489 80.0854 136.709 80.5392 136.826 81.024C136.943 81.5088 136.954 82.0132 136.858 82.5025C136.761 82.9918 136.56 83.4545 136.268 83.8588C135.976 84.2631 135.6 84.5995 135.166 84.8449C134.75 85.0376 134.233 85.2099 134.081 85.646C134.014 85.9698 134.05 86.3065 134.183 86.6093C134.347 87.2166 134.402 87.8484 134.345 88.475C134.347 88.6922 134.268 88.9022 134.122 89.0631C133.96 89.1696 133.768 89.2227 133.574 89.2152C131.06 89.3268 129.853 88.4345 128.312 90.6247C128.183 90.8472 128.007 91.0378 127.794 91.1824C127.58 91.2892 127.345 91.348 127.105 91.3548C125.371 91.4967 124.245 90.4118 122.674 90.2191C120.483 89.9352 120.017 91.0607 118.09 91.9733C115.15 93.3929 113.68 92.5209 113.112 90.4523Z" fill="#F5F5F5"/>
<path d="M98.0843 100.572C97.9366 99.9841 97.8483 99.3828 97.8206 98.7772C97.5975 95.0559 94.0485 95.644 91.0268 95.1471C88.6642 94.7517 94.9104 88.7893 90.1548 86.8627C89.2281 86.6108 88.4179 86.0444 87.8631 85.2606C87.6208 84.6793 87.5896 84.0316 87.7748 83.4297C87.96 82.8278 88.35 82.3097 88.8771 81.9651C89.9628 81.3093 91.2204 80.9949 92.487 81.0627C93.2677 80.1095 92.6289 78.6899 91.8786 77.7266C91.1282 76.7633 90.2156 75.6986 90.4995 74.4818C90.9254 72.687 93.43 72.6262 95.245 72.9709C95.9143 71.886 95.9041 70.5373 96.259 69.3003C96.6139 68.0632 97.557 66.7754 98.8245 66.9275C100.092 67.0796 100.741 68.4181 101.866 68.6919C103.215 69.0163 104.391 67.8198 105.456 66.9174C106.521 66.0149 108.386 65.4572 109.117 66.6436C109.553 67.3534 109.289 68.337 109.745 69.0366C110.536 70.2534 112.412 69.4929 113.578 68.6412C114.744 67.7894 116.62 66.9985 117.421 68.195C117.624 68.5894 117.774 69.0087 117.867 69.4422C118.415 71.024 120.139 71.815 121.477 72.8391C122.816 73.8633 123.87 75.8811 122.735 77.1283C122.177 77.7367 121.193 77.9902 120.92 78.771C120.575 79.785 121.568 80.6266 122.359 81.2959C123.678 82.4113 123.911 85.7575 122.177 86.6701C121.447 87.0554 120.372 87.1771 120.149 87.9781C119.926 88.7792 120.717 89.2659 121.163 89.8135C121.47 90.2057 121.689 90.6596 121.805 91.144C121.921 91.6285 121.931 92.1323 121.835 92.6211C121.739 93.1099 121.538 93.5723 121.247 93.9767C120.956 94.3811 120.582 94.718 120.149 94.9646C119.723 95.1572 119.216 95.3296 119.064 95.7657C118.988 96.1049 119.02 96.4593 119.155 96.7797C119.328 97.3855 119.387 98.0182 119.328 98.6454C119.33 98.8626 119.25 99.0726 119.104 99.2335C118.937 99.3373 118.743 99.3901 118.547 99.3856C116.042 99.4972 114.825 98.6049 113.294 100.795C113.163 101.015 112.987 101.206 112.777 101.353C112.559 101.461 112.321 101.52 112.077 101.525C110.354 101.667 109.228 100.582 107.646 100.389C105.456 100.106 105 101.231 103.073 102.144C100.133 103.513 98.6622 102.641 98.0843 100.572Z" fill="#F5F5F5"/>
<path d="M102.647 113.358C102.647 113.358 108.924 122.241 111.094 125.06C113.264 127.879 124.083 145.421 125.564 157.021C125.716 158.258 125.868 159.333 126.02 160.256C121.366 191.011 122.096 315.205 122.258 324.828H143.106C140.824 229.695 138.411 146.76 138.867 143.728C139.364 140.524 145.529 128.305 155.091 123.286C164.653 118.266 172.857 101.667 172.857 101.667H169.815C169.815 101.667 164.177 111.807 156.166 117.475C155.014 118.271 153.807 118.986 152.556 119.615C152.582 113.49 151.503 107.41 149.372 101.667L147.73 103.178C149.95 112.253 149.656 118.053 148.987 121.43C145.957 122.847 143.16 124.718 140.692 126.977C132.388 116.167 127.713 91.4865 127.713 91.4865L125.584 92.6526C126.186 97.7743 127.104 102.854 128.332 107.863C129.883 114.261 134.416 126.307 136.606 131.783C134.053 135.449 131.943 139.404 130.319 143.566C130.098 143.209 129.828 142.885 129.518 142.602C124.103 137.705 113.923 114.575 113.923 114.575C111.469 109.201 115.231 95.0862 115.231 95.0862H112.382L111.114 107.427L104.016 99.6289L102.718 100.714L110.293 110.458L114.126 122.728L103.986 111.462L102.647 113.358Z" fill="#F5F5F5"/>
<path d="M62.9996 253.057L426.438 253.057V240.737L62.9996 240.737V253.057Z" fill="#E0E0E0"/>
<path d="M417.89 317.244H435.006V209.182L426.448 203.098L417.89 209.182V317.244Z" fill="#E6E6E6"/>
<path d="M387.602 317.244H404.718V209.182L396.16 203.098L387.602 209.182V317.244Z" fill="#E6E6E6"/>
<path d="M357.313 317.244H374.43V209.182L365.871 203.098L357.313 209.182V317.244Z" fill="#E6E6E6"/>
<path d="M327.025 317.244H344.141V209.182L335.583 203.098L327.025 209.182V317.244Z" fill="#E6E6E6"/>
<path d="M296.737 317.244H313.853V209.182L305.295 203.098L296.737 209.182V317.244Z" fill="#E6E6E6"/>
<path d="M266.449 317.244H283.565V209.182L275.007 203.098L266.449 209.182V317.244Z" fill="#E6E6E6"/>
<path d="M236.171 317.244H253.287V209.182L244.729 203.098L236.171 209.182V317.244Z" fill="#E6E6E6"/>
<path d="M205.883 317.244H222.999V209.182L214.441 203.098L205.883 209.182V317.244Z" fill="#E6E6E6"/>
<path d="M175.594 317.244H192.711V209.182L184.152 203.098L175.594 209.182V317.244Z" fill="#E6E6E6"/>
<path d="M145.306 317.244H162.422V209.182L153.864 203.098L145.306 209.182V317.244Z" fill="#E6E6E6"/>
<path d="M115.028 317.244H132.134V209.182L123.576 203.098L115.028 209.182V317.244Z" fill="#E6E6E6"/>
<path d="M84.74 317.244H101.856V209.182L93.2982 203.098L84.74 209.182V317.244Z" fill="#E6E6E6"/>
<path d="M54.4517 317.244H71.568V209.182L63.0098 203.098L54.4517 209.182V317.244Z" fill="#E6E6E6"/>
<path d="M67.4614 318.43C67.4614 318.43 64.6324 308.939 70.3615 307.043C76.0906 305.147 79.4875 300.715 79.3049 295.696C79.1224 290.677 85.1456 285.789 89.668 290.494C94.1905 295.199 93.5922 286.874 99.6255 284.856C105.659 282.839 110.779 287.736 109.117 292.228C107.454 296.72 113.416 299.509 120.544 295.696C127.673 291.883 135.521 298.819 134.01 304.254C132.499 309.689 133.736 310.288 138.249 308.472C142.761 306.657 150.822 311.788 147.993 318.43C145.164 325.072 67.4614 318.43 67.4614 318.43Z" fill="#E0E0E0"/>
<path d="M371.996 317.061C371.996 317.061 369.806 309.689 374.247 308.219C378.688 306.749 381.345 303.311 381.193 299.407C381.041 295.503 385.725 291.721 389.234 295.351C392.742 298.981 392.276 292.543 396.961 290.971C401.645 289.399 405.62 293.212 404.332 296.7C403.045 300.188 407.668 302.348 413.205 299.387C418.741 296.426 424.825 301.821 423.659 306.029C422.493 310.237 423.446 310.713 426.945 309.304C430.443 307.894 436.709 311.89 434.519 317.041C432.329 322.192 371.996 317.061 371.996 317.061Z" fill="#E0E0E0"/>
<path d="M261.926 317.933C256.856 312.863 261.419 304.244 266.489 303.23C271.559 302.216 276.629 293.293 276.893 287.614C277.157 281.936 286.262 264.465 300.458 275.254C314.654 286.043 310.335 276.836 320.607 273.814C330.878 270.792 337.358 279.502 332.846 286.043C332.846 286.043 343.168 283.457 347.417 293.09C351.665 302.723 347.417 308.706 347.417 308.706C347.417 308.706 366.815 308.128 365.07 320.123C363.326 332.119 261.926 317.933 261.926 317.933Z" fill="#E0E0E0"/>
<path d="M442.246 318.237V332.129H50.842V318.237C50.8119 317.682 50.894 317.127 51.0833 316.604C51.2727 316.082 51.5653 315.603 51.9439 315.196C52.3225 314.789 52.7792 314.462 53.2867 314.236C53.7943 314.009 54.3423 313.887 54.898 313.877H438.149C438.709 313.882 439.261 314 439.773 314.224C440.286 314.448 440.747 314.774 441.13 315.181C441.513 315.589 441.809 316.07 442.001 316.595C442.193 317.12 442.276 317.679 442.246 318.237Z" fill="#EBEBEB"/>
<path d="M97.4859 313.877H73.1499V332.129H97.4859V313.877Z" fill="#F5F5F5"/>
<path d="M143.116 313.877H119.794V332.129H143.116V313.877Z" fill="#F5F5F5"/>
<path d="M189.76 313.877H165.424V332.129H189.76V313.877Z" fill="#F5F5F5"/>
<path d="M235.39 313.877H212.068V332.129H235.39V313.877Z" fill="#F5F5F5"/>
<path d="M281.02 313.877H257.698V332.129H281.02V313.877Z" fill="#F5F5F5"/>
<path d="M327.664 313.877H303.328V332.129H327.664V313.877Z" fill="#F5F5F5"/>
<path d="M373.294 313.877H349.972V332.129H373.294V313.877Z" fill="#F5F5F5"/>
<path d="M419.938 313.877H395.602V332.129H419.938V313.877Z" fill="#F5F5F5"/>
<path d="M253.5 377.81C362.082 377.81 450.104 372.671 450.104 366.331C450.104 359.992 362.082 354.853 253.5 354.853C144.918 354.853 56.8955 359.992 56.8955 366.331C56.8955 372.671 144.918 377.81 253.5 377.81Z" fill="#F5F5F5"/>
<path d="M431.518 261.504H397.265V285.444H431.518V261.504Z" fill="#263238"/>
<path d="M386.253 256.079V367.305H433.536V256.079H386.253ZM428.385 278.448H413.347V269.383C413.347 268.369 413.75 267.397 414.467 266.68C415.184 265.963 416.156 265.56 417.17 265.56H424.562C425.576 265.56 426.548 265.963 427.265 266.68C427.982 267.397 428.385 268.369 428.385 269.383V278.448Z" fill="#407BFF"/>
<path opacity="0.6" d="M386.253 256.079V367.305H433.536V256.079H386.253ZM428.385 278.448H413.347V269.383C413.347 268.369 413.75 267.397 414.467 266.68C415.184 265.963 416.156 265.56 417.17 265.56H424.562C425.576 265.56 426.548 265.963 427.265 266.68C427.982 267.397 428.385 268.369 428.385 269.383V278.448Z" fill="white"/>
<path opacity="0.4" d="M406.533 256.079H386.253V367.315H406.533V256.079Z" fill="white"/>
<path d="M434.651 252.084H385.036V259.405H434.651V252.084Z" fill="#407BFF"/>
<path opacity="0.2" d="M407.932 252.084H385.036V259.405H407.932V252.084Z" fill="white"/>
<path d="M100.132 335.719C100.132 335.719 106.348 322.172 99.2502 308.807C92.1522 295.442 90.1242 292.299 94.6163 289.541C99.1083 286.783 101.217 300.229 101.217 300.229C101.217 300.229 105.03 290.991 101.887 281.328C98.7432 271.664 96.7558 255.917 101.055 254.234C105.355 252.55 101.876 273.875 105.608 281.145C107.508 276.04 108.735 270.708 109.258 265.286C109.776 257.519 108.974 245.128 112.371 241.964C115.768 238.8 117.938 240.95 114.602 258.117C112.597 268.354 111.488 278.746 111.286 289.176C111.286 289.176 118.638 266.716 123.607 266.047C128.575 265.377 128.545 272.668 124.316 278.985C120.088 285.302 111.915 296.609 110.577 302.429C110.577 302.429 118.689 285.515 125.939 290.697C133.189 295.879 119.652 306.1 113.568 309.791C107.484 313.482 103.286 336.621 103.286 336.621L100.132 335.719Z" fill="#407BFF"/>
<path opacity="0.2" d="M100.132 335.719C100.132 335.719 106.348 322.172 99.2502 308.807C92.1522 295.442 90.1242 292.299 94.6163 289.541C99.1083 286.783 101.217 300.229 101.217 300.229C101.217 300.229 105.03 290.991 101.887 281.328C98.7432 271.664 96.7558 255.917 101.055 254.234C105.355 252.55 101.876 273.875 105.608 281.145C107.508 276.04 108.735 270.708 109.258 265.286C109.776 257.519 108.974 245.128 112.371 241.964C115.768 238.8 117.938 240.95 114.602 258.117C112.597 268.354 111.488 278.746 111.286 289.176C111.286 289.176 118.638 266.716 123.607 266.047C128.575 265.377 128.545 272.668 124.316 278.985C120.088 285.302 111.915 296.609 110.577 302.429C110.577 302.429 118.689 285.515 125.939 290.697C133.189 295.879 119.652 306.1 113.568 309.791C107.484 313.482 103.286 336.621 103.286 336.621L100.132 335.719Z" fill="black"/>
<path d="M105.04 341.285C105.04 341.285 98.9563 327.637 106.247 314.384C113.538 301.131 115.596 298.018 111.104 295.209C106.612 292.401 104.381 305.795 104.381 305.795C104.381 305.795 100.68 296.507 103.945 286.884C107.21 277.262 109.37 261.534 105.091 259.8C100.812 258.066 104.077 279.431 100.214 286.641C98.3798 281.523 97.2175 276.189 96.7559 270.772C96.33 263.005 97.2832 250.614 93.9269 247.389C90.5705 244.165 88.3701 246.375 91.5034 263.512C93.3873 273.773 94.3712 284.179 94.444 294.611C94.444 294.611 87.346 272.029 82.3977 271.289C77.4494 270.549 77.3277 277.839 81.5358 284.218C85.7439 290.596 93.7038 302.023 95.0017 307.864C95.0017 307.864 87.1128 290.829 79.7917 295.899C72.4706 300.969 85.9365 311.393 91.9597 315.165C97.9829 318.937 101.917 342.147 101.917 342.147L105.04 341.285Z" fill="#407BFF"/>
<path d="M77.1348 331.551H127.105L123.059 367.315H81.1806L77.1348 331.551Z" fill="#263238"/>
<path d="M362.282 173.996C362.282 168.054 359.18 162.69 354.17 158.836C354.333 158.056 354.415 157.261 354.414 156.464C354.414 148.544 346.373 142.116 336.375 141.933C333.333 134.288 324.278 128.751 313.56 128.751C305.012 128.751 297.518 132.29 293.28 137.593C292.211 137.447 291.134 137.372 290.055 137.37C279.844 137.37 271.57 143.87 271.57 151.901C271.572 153.265 271.815 154.617 272.29 155.896C265.78 159.313 261.501 165.133 261.501 171.735C261.501 178.102 265.476 183.74 271.58 187.198C271.58 187.259 271.58 187.33 271.58 187.401C271.58 195.188 279.378 201.597 289.163 201.911C294.568 207.184 302.842 210.561 312.11 210.561C318.217 210.614 324.232 209.061 329.55 206.058C330.385 206.152 331.225 206.199 332.065 206.2C342.266 206.2 350.54 199.691 350.54 191.67V191.518C357.628 187.695 362.282 181.266 362.282 173.996Z" fill="#407BFF"/>
<path d="M229.236 163.927C229.236 165.255 227.694 166.33 225.798 166.33C223.902 166.33 222.361 165.255 222.361 163.927C222.361 162.598 223.892 161.524 225.798 161.524C227.704 161.524 229.236 162.598 229.236 163.927Z" fill="#407BFF"/>
<path d="M256.086 162.274C256.086 166.117 251.614 169.23 246.098 169.23C240.582 169.23 236.11 166.117 236.11 162.274C236.11 158.431 240.582 155.318 246.098 155.318C251.614 155.318 256.086 158.431 256.086 162.274Z" fill="#407BFF"/>
<path opacity="0.7" d="M362.282 173.996C362.282 168.054 359.18 162.69 354.17 158.836C354.333 158.056 354.415 157.261 354.414 156.464C354.414 148.544 346.373 142.116 336.375 141.933C333.333 134.288 324.278 128.751 313.56 128.751C305.012 128.751 297.518 132.29 293.28 137.593C292.211 137.447 291.134 137.372 290.055 137.37C279.844 137.37 271.57 143.87 271.57 151.901C271.572 153.265 271.815 154.617 272.29 155.896C265.78 159.313 261.501 165.133 261.501 171.735C261.501 178.102 265.476 183.74 271.58 187.198C271.58 187.259 271.58 187.33 271.58 187.401C271.58 195.188 279.378 201.597 289.163 201.911C294.568 207.184 302.842 210.561 312.11 210.561C318.217 210.614 324.232 209.061 329.55 206.058C330.385 206.152 331.225 206.199 332.065 206.2C342.266 206.2 350.54 199.691 350.54 191.67V191.518C357.628 187.695 362.282 181.266 362.282 173.996Z" fill="white"/>
<path opacity="0.7" d="M229.236 163.927C229.236 165.255 227.694 166.33 225.798 166.33C223.902 166.33 222.361 165.255 222.361 163.927C222.361 162.598 223.892 161.524 225.798 161.524C227.704 161.524 229.236 162.598 229.236 163.927Z" fill="white"/>
<path opacity="0.7" d="M256.086 162.274C256.086 166.117 251.614 169.23 246.098 169.23C240.582 169.23 236.11 166.117 236.11 162.274C236.11 158.431 240.582 155.318 246.098 155.318C251.614 155.318 256.086 158.431 256.086 162.274Z" fill="white"/>
<path d="M300.144 85.3619C300.144 78.0814 294.993 71.8352 287.601 69.0467C287.853 67.949 287.982 66.8267 287.986 65.7005C287.986 57.0004 280.614 49.7604 270.86 48.1583C264.198 39.2148 252.608 33.2829 239.426 33.2829C226.244 33.2829 214.826 39.1033 208.134 47.9149C197.395 48.787 189.01 56.4122 189.01 65.7005C189.01 67.3813 189.291 69.0503 189.841 70.6387C184.305 73.8632 180.715 79.2576 180.715 85.3619C180.715 93.9302 187.813 101.079 197.375 102.823C198.835 111.503 207.627 118.175 218.304 118.185C225.414 123.168 233.894 125.821 242.576 125.779C251.257 125.738 259.712 123.003 266.773 117.952C276.031 116.755 283.301 110.499 284.508 102.62C293.482 100.592 300.144 93.6463 300.144 85.3619Z" fill="#407BFF"/>
<path d="M225.706 144.032C231.391 144.032 235.999 140.627 235.999 136.427C235.999 132.227 231.391 128.822 225.706 128.822C220.022 128.822 215.414 132.227 215.414 136.427C215.414 140.627 220.022 144.032 225.706 144.032Z" fill="#407BFF"/>
<path d="M217.838 150.248C217.838 151.566 216.297 152.651 214.4 152.651C212.504 152.651 210.963 151.566 210.963 150.248C210.963 148.93 212.504 147.845 214.4 147.845C216.297 147.845 217.838 148.919 217.838 150.248Z" fill="#407BFF"/>
<path opacity="0.7" d="M300.144 85.3619C300.144 78.0814 294.993 71.8352 287.601 69.0467C287.853 67.949 287.982 66.8267 287.986 65.7005C287.986 57.0004 280.614 49.7604 270.86 48.1583C264.198 39.2148 252.608 33.2829 239.426 33.2829C226.244 33.2829 214.826 39.1033 208.134 47.9149C197.395 48.787 189.01 56.4122 189.01 65.7005C189.01 67.3813 189.291 69.0503 189.841 70.6387C184.305 73.8632 180.715 79.2576 180.715 85.3619C180.715 93.9302 187.813 101.079 197.375 102.823C198.835 111.503 207.627 118.175 218.304 118.185C225.414 123.168 233.894 125.821 242.576 125.779C251.257 125.738 259.712 123.003 266.773 117.952C276.031 116.755 283.301 110.499 284.508 102.62C293.482 100.592 300.144 93.6463 300.144 85.3619Z" fill="white"/>
<path opacity="0.7" d="M225.706 144.032C231.391 144.032 235.999 140.627 235.999 136.427C235.999 132.227 231.391 128.822 225.706 128.822C220.022 128.822 215.414 132.227 215.414 136.427C215.414 140.627 220.022 144.032 225.706 144.032Z" fill="white"/>
<path opacity="0.7" d="M217.838 150.248C217.838 151.566 216.297 152.651 214.4 152.651C212.504 152.651 210.963 151.566 210.963 150.248C210.963 148.93 212.504 147.845 214.4 147.845C216.297 147.845 217.838 148.919 217.838 150.248Z" fill="white"/>
<path d="M182.662 138.861C182.662 141.639 179.62 143.931 175.848 143.931C172.076 143.931 169.034 141.68 169.034 138.861C169.034 136.042 172.076 133.791 175.848 133.791C179.62 133.791 182.662 136.082 182.662 138.861Z" fill="#407BFF"/>
<path d="M191.767 148.078C191.767 149.406 190.236 150.481 188.33 150.481C186.424 150.481 184.893 149.406 184.893 148.078C184.893 146.75 186.434 145.675 188.33 145.675C190.226 145.675 191.767 146.739 191.767 148.078Z" fill="#407BFF"/>
<path opacity="0.7" d="M182.662 138.861C182.662 141.639 179.62 143.931 175.848 143.931C172.076 143.931 169.034 141.68 169.034 138.861C169.034 136.042 172.076 133.791 175.848 133.791C179.62 133.791 182.662 136.082 182.662 138.861Z" fill="white"/>
<path opacity="0.7" d="M191.767 148.078C191.767 149.406 190.236 150.481 188.33 150.481C186.424 150.481 184.893 149.406 184.893 148.078C184.893 146.75 186.434 145.675 188.33 145.675C190.226 145.675 191.767 146.739 191.767 148.078Z" fill="white"/>
<path d="M170.099 119.939C169.877 118.272 169.272 116.679 168.331 115.286C167.389 113.892 166.138 112.736 164.674 111.909C164.719 111.46 164.719 111.008 164.674 110.56C164.207 106.119 159.32 102.985 153.702 103.462C151.563 99.345 146.148 96.7593 140.135 97.3779C137.985 97.5337 135.897 98.1648 134.02 99.2257C132.144 100.287 130.527 101.751 129.285 103.513C128.676 103.493 128.066 103.513 127.46 103.573C121.731 104.172 117.472 108.299 117.938 112.801C118.021 113.565 118.233 114.309 118.567 115.001C115.12 117.303 113.061 120.811 113.497 124.523C113.933 128.234 116.428 131.022 120.048 132.635C120.042 132.672 120.042 132.709 120.048 132.746C120.504 137.117 125.239 140.23 130.755 139.844C134.595 142.693 139.386 143.95 144.13 143.353C147.555 143.03 150.835 141.813 153.641 139.824C154.112 139.834 154.583 139.813 155.051 139.763C160.78 139.165 165.039 135.038 164.572 130.526C164.572 130.526 164.572 130.526 164.572 130.444C168.324 127.899 170.524 124.026 170.099 119.939Z" fill="#407BFF"/>
<path opacity="0.7" d="M170.099 119.939C169.877 118.272 169.272 116.679 168.331 115.286C167.389 113.892 166.138 112.736 164.674 111.909C164.719 111.46 164.719 111.008 164.674 110.56C164.207 106.119 159.32 102.985 153.702 103.462C151.563 99.345 146.148 96.7593 140.135 97.3779C137.985 97.5337 135.897 98.1648 134.02 99.2257C132.144 100.287 130.527 101.751 129.285 103.513C128.676 103.493 128.066 103.513 127.46 103.573C121.731 104.172 117.472 108.299 117.938 112.801C118.021 113.565 118.233 114.309 118.567 115.001C115.12 117.303 113.061 120.811 113.497 124.523C113.933 128.234 116.428 131.022 120.048 132.635C120.042 132.672 120.042 132.709 120.048 132.746C120.504 137.117 125.239 140.23 130.755 139.844C134.595 142.693 139.386 143.95 144.13 143.353C147.555 143.03 150.835 141.813 153.641 139.824C154.112 139.834 154.583 139.813 155.051 139.763C160.78 139.165 165.039 135.038 164.572 130.526C164.572 130.526 164.572 130.526 164.572 130.444C168.324 127.899 170.524 124.026 170.099 119.939Z" fill="white"/>
<path d="M318.457 166.208C318.65 163.501 316.429 161.493 312.728 161.229C311.22 161.038 309.688 161.226 308.272 161.777C306.855 162.328 305.598 163.223 304.616 164.383L300.144 160.996C303.115 157.518 307.638 155.602 313.681 156.038C320.779 156.545 325.301 160.094 324.906 165.691C324.338 173.58 316.013 173.712 315.597 179.421L309.453 178.985C309.929 171.826 318.102 171.045 318.457 166.208ZM308.084 186.711C308.206 185.729 308.701 184.83 309.466 184.202C310.232 183.574 311.209 183.264 312.197 183.335C313.184 183.407 314.107 183.855 314.773 184.587C315.44 185.319 315.801 186.279 315.78 187.269C315.658 188.252 315.163 189.15 314.397 189.778C313.632 190.406 312.655 190.717 311.667 190.645C310.679 190.573 309.757 190.125 309.09 189.393C308.423 188.661 308.063 187.701 308.084 186.711Z" fill="#407BFF"/>
<path d="M248.075 105.358C247.933 108.126 244.019 110.185 239.324 109.941C234.629 109.698 230.938 107.264 231.08 104.486C231.222 101.708 235.136 99.6594 239.831 99.9027C244.526 100.146 248.217 102.58 248.075 105.358Z" fill="#263238"/>
<path d="M252.212 96.3639C252.696 95.954 253.001 95.3723 253.064 94.7415C253.206 92.0239 247.527 89.5194 240.389 89.1543C233.25 88.7893 227.349 90.7058 227.207 93.4233C227.207 94.0541 227.45 94.6605 227.886 95.1167C227.73 95.3786 227.64 95.6742 227.623 95.9786C227.625 96.605 227.872 97.2057 228.312 97.6517C228.149 97.9146 228.055 98.2146 228.038 98.5237C228.039 98.8353 228.103 99.1434 228.227 99.4294C228.351 99.7153 228.531 99.973 228.758 100.187C228.578 100.451 228.473 100.76 228.454 101.079C228.458 101.39 228.526 101.698 228.653 101.982C228.78 102.266 228.965 102.521 229.194 102.732C229.007 102.998 228.895 103.31 228.87 103.634C228.748 105.895 233.473 107.974 239.405 108.278C245.337 108.583 250.255 107.001 250.367 104.729C250.377 104.406 250.297 104.086 250.133 103.807C250.386 103.623 250.597 103.388 250.752 103.117C250.908 102.846 251.004 102.546 251.036 102.235C251.052 101.918 250.982 101.602 250.833 101.322C251.078 101.131 251.283 100.893 251.435 100.621C251.586 100.349 251.682 100.05 251.715 99.7405C251.726 99.4284 251.66 99.1185 251.523 98.838C251.765 98.6435 251.966 98.4025 252.114 98.1291C252.262 97.8557 252.354 97.5555 252.384 97.2461C252.398 96.9425 252.339 96.64 252.212 96.3639Z" fill="#263238"/>
<path opacity="0.3" d="M252.212 96.3639C252.696 95.954 253.001 95.3723 253.064 94.7415C253.206 92.0239 247.527 89.5194 240.389 89.1543C233.25 88.7893 227.349 90.7058 227.207 93.4233C227.207 94.0541 227.45 94.6605 227.886 95.1167C227.73 95.3786 227.64 95.6742 227.623 95.9786C227.625 96.605 227.872 97.2057 228.312 97.6517C228.149 97.9146 228.055 98.2146 228.038 98.5237C228.039 98.8353 228.103 99.1434 228.227 99.4294C228.351 99.7153 228.531 99.973 228.758 100.187C228.578 100.451 228.473 100.76 228.454 101.079C228.458 101.39 228.526 101.698 228.653 101.982C228.78 102.266 228.965 102.521 229.194 102.732C229.007 102.998 228.895 103.31 228.87 103.634C228.748 105.895 233.473 107.974 239.405 108.278C245.337 108.583 250.255 107.001 250.367 104.729C250.377 104.406 250.297 104.086 250.133 103.807C250.386 103.623 250.597 103.388 250.752 103.117C250.908 102.846 251.004 102.546 251.036 102.235C251.052 101.918 250.982 101.602 250.833 101.322C251.078 101.131 251.283 100.893 251.435 100.621C251.586 100.349 251.682 100.05 251.715 99.7405C251.726 99.4284 251.66 99.1185 251.523 98.838C251.765 98.6435 251.966 98.4025 252.114 98.1291C252.262 97.8557 252.354 97.5555 252.384 97.2461C252.398 96.9425 252.339 96.64 252.212 96.3639Z" fill="white"/>
<path d="M264.167 72.7275C264.364 68.8702 263.583 65.0257 261.895 61.5516C260.208 58.0774 257.669 55.0863 254.515 52.8565C251.362 50.6266 247.696 49.2303 243.858 48.7975C240.02 48.3647 236.135 48.9094 232.564 50.3809C228.993 51.8524 225.852 54.203 223.433 57.2141C221.014 60.2252 219.396 63.799 218.729 67.6033C218.062 71.4076 218.367 75.3188 219.617 78.9732C220.867 82.6276 223.021 85.9066 225.879 88.5053C226.337 88.9162 226.688 89.4334 226.9 90.0115C227.112 90.5897 227.179 91.2111 227.095 91.8211C227.09 91.8819 227.09 91.9429 227.095 92.0036C226.953 94.7719 232.723 97.3069 239.973 97.682C247.223 98.0572 253.216 96.1103 253.358 93.3522V93.1697C253.336 92.5465 253.469 91.9276 253.745 91.3684C254.021 90.8092 254.432 90.3272 254.94 89.9655C257.656 87.9526 259.893 85.3627 261.488 82.382C263.084 79.4014 263.999 76.1041 264.167 72.7275Z" fill="#407BFF"/>
<path opacity="0.3" d="M264.167 72.7275C264.364 68.8702 263.583 65.0257 261.895 61.5516C260.208 58.0774 257.669 55.0863 254.515 52.8565C251.362 50.6266 247.696 49.2303 243.858 48.7975C240.02 48.3647 236.135 48.9094 232.564 50.3809C228.993 51.8524 225.852 54.203 223.433 57.2141C221.014 60.2252 219.396 63.799 218.729 67.6033C218.062 71.4076 218.367 75.3188 219.617 78.9732C220.867 82.6276 223.021 85.9066 225.879 88.5053C226.337 88.9162 226.688 89.4334 226.9 90.0115C227.112 90.5897 227.179 91.2111 227.095 91.8211C227.09 91.8819 227.09 91.9429 227.095 92.0036C226.953 94.7719 232.723 97.3069 239.973 97.682C247.223 98.0572 253.216 96.1103 253.358 93.3522V93.1697C253.336 92.5465 253.469 91.9276 253.745 91.3684C254.021 90.8092 254.432 90.3272 254.94 89.9655C257.656 87.9526 259.893 85.3627 261.488 82.382C263.084 79.4014 263.999 76.1041 264.167 72.7275Z" fill="white"/>
<path d="M244.141 94.1432H244.08C244.045 94.1359 244.011 94.1218 243.981 94.1015C243.952 94.0813 243.926 94.0553 243.906 94.0252C243.886 93.995 243.873 93.9613 243.866 93.9258C243.859 93.8904 243.86 93.854 243.867 93.8187C243.948 93.3827 245.895 83.4658 251.34 79.8661L247.954 79.6937C247.899 79.6907 247.848 79.6718 247.804 79.6393C247.761 79.6068 247.728 79.5623 247.71 79.5112L246.696 76.7734L243.837 82.0259C243.812 82.0703 243.776 82.1073 243.732 82.133C243.689 82.1588 243.639 82.1724 243.588 82.1724C243.538 82.1724 243.488 82.1588 243.444 82.133C243.4 82.1073 243.364 82.0703 243.34 82.0259L241.008 76.4388L238.179 81.0626C238.157 81.1077 238.122 81.1448 238.079 81.1685C238.035 81.1922 237.985 81.2013 237.935 81.1944C237.886 81.1946 237.837 81.1803 237.796 81.1532C237.754 81.1262 237.722 81.0877 237.702 81.0423L235.37 76.1751L234.082 78.8318C234.059 78.8813 234.022 78.9225 233.974 78.9497C233.927 78.977 233.873 78.9889 233.818 78.9839L230.168 78.8014C231.608 80.5049 236.08 86.3962 235.715 93.4638C235.715 93.5364 235.686 93.6061 235.634 93.6574C235.583 93.7087 235.513 93.7376 235.441 93.7376C235.368 93.7376 235.299 93.7087 235.247 93.6574C235.196 93.6061 235.167 93.5364 235.167 93.4638C235.583 85.3518 229.387 78.7811 229.326 78.7101C229.295 78.6656 229.278 78.6125 229.278 78.558C229.278 78.5035 229.295 78.4504 229.326 78.4059C229.349 78.3554 229.386 78.3129 229.433 78.2839C229.48 78.255 229.535 78.241 229.59 78.2437L233.717 78.4566L235.177 75.4146C235.201 75.3699 235.235 75.3323 235.278 75.3055C235.321 75.2788 235.37 75.264 235.421 75.2625C235.472 75.2632 235.523 75.2777 235.568 75.3044C235.612 75.3311 235.649 75.3691 235.674 75.4146L238.027 80.3426L240.876 75.6783C240.902 75.6361 240.94 75.6023 240.985 75.5808C241.03 75.5593 241.08 75.5509 241.129 75.5566C241.18 75.5585 241.228 75.5748 241.27 75.6036C241.311 75.6323 241.343 75.6723 241.363 75.7188L243.674 81.2755L246.554 75.9824C246.579 75.9374 246.616 75.9002 246.661 75.8751C246.705 75.85 246.756 75.838 246.808 75.8405C246.861 75.8447 246.913 75.8641 246.956 75.8964C246.999 75.9287 247.032 75.9726 247.051 76.023L248.197 79.1563L252.324 79.3692C252.384 79.3722 252.441 79.3946 252.486 79.433C252.532 79.4715 252.564 79.5238 252.577 79.5821C252.593 79.6414 252.587 79.7043 252.561 79.7598C252.535 79.8153 252.491 79.86 252.435 79.8863C246.656 82.8776 244.465 93.8289 244.445 93.9303C244.43 93.9975 244.391 94.0567 244.335 94.0962C244.278 94.1356 244.209 94.1524 244.141 94.1432Z" fill="#263238"/>
<path opacity="0.4" d="M248.602 55.5706C250.63 60.1945 246.858 66.2582 240.237 69.1278C233.615 71.9974 226.619 70.5677 224.621 65.954C222.624 61.3403 226.365 55.2563 232.987 52.3867C239.608 49.517 246.594 50.9468 248.602 55.5706Z" fill="white"/>
<path opacity="0.4" d="M246.402 72.1293C247.203 73.9849 245.692 76.4185 243.036 77.5745C240.379 78.7304 237.57 78.1525 236.769 76.2968C235.968 74.4412 237.469 72.0076 240.125 70.8517C242.782 69.6957 245.611 70.2737 246.402 72.1293Z" fill="white"/>
<path d="M146.695 129.41L148.156 130.617L150.741 128.031L149.535 126.571C150.215 125.545 150.693 124.399 150.944 123.194L152.82 123.012V119.361L150.944 119.179C150.693 117.974 150.215 116.828 149.535 115.802L150.741 114.342L148.156 111.756L146.695 112.963C145.668 112.288 144.522 111.814 143.319 111.564L143.146 109.678H139.486L139.313 111.564C138.11 111.814 136.964 112.288 135.937 112.963L134.477 111.756L131.891 114.342L133.098 115.802C132.417 116.828 131.939 117.974 131.688 119.179L129.812 119.361V123.012L131.688 123.194C131.939 124.399 132.417 125.545 133.098 126.571L131.891 128.031L134.477 130.617L135.937 129.41C136.964 130.085 138.11 130.56 139.313 130.81L139.486 132.696H143.146L143.319 130.81C144.522 130.56 145.668 130.085 146.695 129.41ZM136.363 121.187C136.361 120.206 136.65 119.246 137.193 118.429C137.737 117.612 138.511 116.975 139.417 116.598C140.322 116.222 141.32 116.122 142.282 116.312C143.245 116.502 144.129 116.974 144.824 117.667C145.518 118.36 145.991 119.243 146.184 120.205C146.376 121.168 146.278 122.165 145.903 123.072C145.528 123.978 144.893 124.753 144.077 125.299C143.261 125.844 142.302 126.135 141.321 126.135C140.67 126.136 140.026 126.009 139.424 125.761C138.823 125.513 138.276 125.149 137.816 124.689C137.355 124.23 136.99 123.684 136.74 123.083C136.491 122.482 136.363 121.837 136.363 121.187Z" fill="#407BFF"/>
<path d="M146.117 367.315H139.425L153.114 295.128H159.806L146.117 367.315Z" fill="#407BFF"/>
<path d="M293.31 367.315H286.607L300.296 295.128H306.999L293.31 367.315Z" fill="#407BFF"/>
<path opacity="0.3" d="M146.117 367.315H139.425L153.114 295.128H159.806L146.117 367.315Z" fill="white"/>
<path opacity="0.3" d="M293.31 367.315H286.607L300.296 295.128H306.999L293.31 367.315Z" fill="white"/>
<path d="M351.554 328.681H149.616V335.465H351.554V328.681Z" fill="#407BFF"/>
<path opacity="0.5" d="M351.554 328.681H149.616V335.465H351.554V328.681Z" fill="white"/>
<path d="M207.87 367.315H214.563L200.874 295.128H194.181L207.87 367.315Z" fill="#407BFF"/>
<path d="M355.052 367.315H361.745L348.056 295.128H341.363L355.052 367.315Z" fill="#407BFF"/>
<path opacity="0.3" d="M207.87 367.315H214.563L200.874 295.128H194.181L207.87 367.315Z" fill="white"/>
<path opacity="0.3" d="M355.052 367.315H361.745L348.056 295.128H341.363L355.052 367.315Z" fill="white"/>
<path d="M294.334 292.127H287.672L276.518 230.121H283.18L294.334 292.127Z" fill="#407BFF"/>
<path opacity="0.3" d="M294.334 292.127H287.672L276.518 230.121H283.18L294.334 292.127Z" fill="white"/>
<path d="M162.017 292.127H155.355L144.201 230.121H150.863L162.017 292.127Z" fill="#407BFF"/>
<path d="M228.181 292.127H221.508L210.354 230.121H217.027L228.181 292.127Z" fill="#407BFF"/>
<path opacity="0.3" d="M162.017 292.127H155.355L144.201 230.121H150.863L162.017 292.127Z" fill="white"/>
<path opacity="0.3" d="M228.181 292.127H221.508L210.354 230.121H217.027L228.181 292.127Z" fill="white"/>
<path d="M305.843 234.349H130.857L128.768 222.749H303.754L305.843 234.349Z" fill="#407BFF"/>
<path d="M309.615 255.349H134.629L132.54 243.739H307.526L309.615 255.349Z" fill="#407BFF"/>
<path d="M313.387 276.339H138.411L136.322 264.729H311.308L313.387 276.339Z" fill="#407BFF"/>
<path d="M363.144 290.291H140.135V298.322H363.144V290.291Z" fill="#407BFF"/>
<path opacity="0.5" d="M305.843 234.349H130.857L128.768 222.749H303.754L305.843 234.349Z" fill="white"/>
<path opacity="0.5" d="M309.615 255.349H134.629L132.54 243.739H307.526L309.615 255.349Z" fill="white"/>
<path opacity="0.5" d="M313.387 276.339H138.411L136.322 264.729H311.308L313.387 276.339Z" fill="white"/>
<path opacity="0.5" d="M363.144 290.291H140.135V298.322H363.144V290.291Z" fill="white"/>
<path opacity="0.2" d="M363.144 290.291H194.891V298.322H363.144V290.291Z" fill="white"/>
<path d="M229.052 190.078C236.617 190.899 245.185 192.349 252.527 191.528C251.58 192.152 250.901 193.108 250.623 194.208C250.346 195.307 250.489 196.471 251.026 197.47C251.34 197.946 251.381 197.896 251.36 197.875C249.529 196.382 247.54 195.094 245.429 194.032C241.048 191.578 229.904 186.123 225.27 183.771L227.227 178.396C234.825 180.22 242.281 182.592 249.535 185.494C253.591 187.401 260.03 189.378 260.831 194.681C261.318 203.169 248.866 202.844 243.198 202.915C237.883 202.825 232.582 202.34 227.339 201.465L229.093 190.037L229.052 190.078Z" fill="#EBC0BB"/>
<path d="M244.374 204.639L239.182 205.237L234.64 205.754L232.013 198.94L228.373 189.48L239.233 190.666L243.908 192.552C244.65 196.537 244.807 200.609 244.374 204.639Z" fill="#407BFF"/>
<path opacity="0.2" d="M239.162 205.237L234.619 205.754L231.993 198.94C234.153 199.934 237.448 201.921 239.162 205.237Z" fill="black"/>
<path d="M194.1 198.778C194.796 196.594 196.012 194.611 197.641 192.999C199.271 191.386 201.267 190.193 203.459 189.52C211.013 187.208 219.308 189.145 222.248 191.284C225.189 193.424 210.151 202.408 194.1 198.778Z" fill="#407BFF"/>
<path d="M228.353 189.48C228.353 189.48 242.549 209.76 242.255 248.697L202.263 255.907C201.543 253.21 200.711 245.108 198.643 234.613C197.76 230.121 196.615 225.193 195.236 220.062C193.229 212.661 190.618 205.437 187.428 198.464C187.428 198.464 201.948 193.891 207.211 192.735C212.179 191.68 228.353 189.48 228.353 189.48Z" fill="#263238"/>
<path d="M198.49 175.568C198.886 176.521 199.302 177.596 199.697 178.812C201.502 184.197 203.023 191.376 200.478 195.036C202.506 196.457 204.818 197.422 207.254 197.865C209.691 198.308 212.194 198.218 214.593 197.602C219.267 196.588 218.882 193.211 217.483 191.599C215.613 191.67 213.791 190.999 212.413 189.733C210.689 187.948 210.466 185.13 210.618 182.351L198.49 175.568Z" fill="#EEC1BB"/>
<path opacity="0.2" d="M198.49 175.568C198.833 176.67 199.236 177.754 199.697 178.812C201.543 183.041 205.568 189.774 212.423 189.682C210.699 187.898 210.476 185.079 210.628 182.3L198.49 175.568Z" fill="black"/>
<path d="M321.549 342.847C321.549 342.847 304.697 281.835 301.918 278.336C297.366 272.607 253.753 266.554 253.753 266.554L242.346 246.831L201.157 252.601C201.157 252.601 204.199 281.571 209.269 289.034C214.339 296.497 280.706 295.25 285.127 296.7C289.548 298.15 306.228 345.808 306.228 345.808L321.549 342.847Z" fill="#263238"/>
<path opacity="0.4" d="M214.045 251.962L201.157 253.574L201.644 257.489L215.384 255.866L214.045 251.962Z" fill="white"/>
<path opacity="0.4" d="M216.002 251.607L217.361 255.552L243.907 251.344L242.255 247.805L216.002 251.607Z" fill="white"/>
<path d="M229.985 250.603L230.888 253.209C231.005 253.525 231.227 253.791 231.517 253.963C231.807 254.134 232.147 254.201 232.48 254.152L237.033 253.361C237.183 253.341 237.327 253.286 237.454 253.202C237.58 253.119 237.687 253.007 237.764 252.877C237.842 252.746 237.89 252.6 237.904 252.449C237.917 252.298 237.897 252.145 237.844 252.003L236.941 249.397C236.822 249.08 236.598 248.814 236.307 248.642C236.015 248.471 235.674 248.404 235.339 248.454L230.786 249.245C230.637 249.267 230.494 249.322 230.369 249.407C230.243 249.491 230.138 249.602 230.061 249.733C229.985 249.863 229.938 250.009 229.925 250.159C229.912 250.31 229.932 250.462 229.985 250.603Z" fill="white"/>
<path opacity="0.2" d="M253.754 266.554L238.878 264.881L252.162 263.806L253.754 266.554Z" fill="black"/>
<path d="M213.751 159.901C215.951 161.848 214.187 164.971 214.593 167.161C214.998 169.352 215.779 172.1 212.565 169.504C209.35 166.908 210.374 157.204 213.751 159.901Z" fill="#263238"/>
<path d="M216.935 179.512C217.058 180.664 216.834 181.827 216.292 182.851C215.75 183.875 214.915 184.715 213.893 185.261C210.679 186.995 205.507 186.275 201.33 183.578C196.898 180.688 197.679 179.319 195.692 172.211C195.202 170.556 195.142 168.803 195.519 167.119C195.896 165.434 196.696 163.874 197.845 162.585C198.993 161.297 200.451 160.323 202.082 159.755C203.712 159.188 205.46 159.046 207.16 159.343C214.258 160.53 216.387 170.933 216.854 177.89C216.894 178.498 216.915 178.995 216.935 179.512Z" fill="#EEC1BB"/>
<path d="M197.466 176.936C201.025 178.437 201.421 173.671 201.147 173.347C199.93 171.937 199.788 170.599 200.539 167.445C201.289 164.292 194.81 161.716 190.662 163.633C186.829 165.397 191.332 167.932 191.19 170.609C190.946 175.385 194.597 175.72 197.466 176.936Z" fill="#263238"/>
<path d="M193.43 177.727C194.376 179.145 195.827 180.15 197.486 180.536C199.596 180.962 200.255 178.853 199.352 176.784C198.531 174.919 196.452 172.455 194.485 172.972C192.518 173.489 192.193 175.922 193.43 177.727Z" fill="#EEC1BB"/>
<path d="M205.011 169.869C205.173 170.477 205.457 170.477 205.862 170.366C206.268 170.254 206.613 170.102 206.461 169.494C206.308 168.885 205.852 168.48 205.447 168.581C205.041 168.682 204.828 169.26 205.011 169.869Z" fill="#263238"/>
<path d="M212.189 168.936C212.341 169.554 212.636 169.544 213.041 169.443C213.447 169.341 213.792 169.169 213.629 168.561C213.467 167.952 213.031 167.547 212.615 167.648C212.2 167.749 212.037 168.358 212.189 168.936Z" fill="#263238"/>
<path d="M210.973 169.909C211.814 171.248 212.838 172.464 214.015 173.519C213.737 173.816 213.398 174.048 213.022 174.2C212.646 174.353 212.24 174.421 211.835 174.401L210.973 169.909Z" fill="#ED847E"/>
<path d="M202.8 168.561C202.74 168.574 202.677 168.574 202.617 168.561C202.534 168.51 202.473 168.429 202.448 168.334C202.424 168.239 202.437 168.139 202.486 168.054C202.771 167.538 203.174 167.098 203.662 166.768C204.15 166.439 204.71 166.23 205.294 166.158C205.343 166.153 205.392 166.159 205.439 166.174C205.485 166.19 205.528 166.214 205.565 166.246C205.602 166.278 205.632 166.318 205.654 166.362C205.675 166.406 205.687 166.453 205.69 166.502C205.693 166.552 205.686 166.601 205.669 166.648C205.653 166.694 205.627 166.737 205.594 166.774C205.561 166.81 205.522 166.84 205.477 166.862C205.433 166.883 205.384 166.895 205.335 166.898C204.872 166.962 204.431 167.134 204.047 167.4C203.663 167.666 203.347 168.018 203.124 168.429C203.085 168.475 203.034 168.511 202.978 168.534C202.922 168.557 202.861 168.566 202.8 168.561Z" fill="#263238"/>
<path d="M214.41 166.33C214.357 166.358 214.298 166.372 214.238 166.372C214.178 166.372 214.119 166.358 214.065 166.33C213.694 166.053 213.263 165.868 212.806 165.79C212.349 165.712 211.881 165.745 211.439 165.884C211.394 165.902 211.345 165.91 211.297 165.909C211.248 165.908 211.2 165.897 211.156 165.878C211.112 165.858 211.072 165.829 211.038 165.794C211.005 165.758 210.979 165.717 210.962 165.671C210.929 165.581 210.931 165.481 210.968 165.392C211.006 165.303 211.077 165.232 211.165 165.194C211.721 165.01 212.314 164.962 212.892 165.054C213.471 165.146 214.019 165.375 214.491 165.722C214.569 165.78 214.622 165.866 214.639 165.962C214.655 166.058 214.635 166.157 214.582 166.239C214.534 166.284 214.475 166.316 214.41 166.33Z" fill="#263238"/>
<path d="M205.954 162.335C205.954 162.335 211.794 163.967 213.528 158.826C215.262 153.685 208.336 151.728 208.336 151.728C208.652 152.217 208.859 152.768 208.943 153.343C209.027 153.919 208.986 154.506 208.823 155.064C208.823 155.064 207.211 151.759 202.739 153.533C198.267 155.308 191.21 157.802 190.054 160.479C189.75 161.111 189.611 161.81 189.65 162.51C189.689 163.211 189.905 163.89 190.277 164.484L198.034 165.204C198.363 164.494 198.83 163.855 199.407 163.326C199.984 162.797 200.66 162.387 201.396 162.12C202.132 161.853 202.914 161.735 203.696 161.772C204.478 161.808 205.246 162 205.954 162.335Z" fill="#263238"/>
<path d="M211.845 178.031C210.068 178.053 208.34 177.454 206.957 176.338C206.891 176.268 206.854 176.176 206.854 176.08C206.854 175.983 206.891 175.891 206.957 175.821C206.991 175.787 207.031 175.76 207.076 175.741C207.12 175.723 207.168 175.714 207.216 175.714C207.264 175.714 207.311 175.723 207.356 175.741C207.4 175.76 207.44 175.787 207.474 175.821C208.979 176.981 210.882 177.498 212.767 177.261C212.864 177.252 212.96 177.281 213.035 177.342C213.111 177.402 213.16 177.489 213.173 177.585C213.184 177.681 213.158 177.777 213.099 177.853C213.04 177.929 212.954 177.978 212.859 177.991C212.522 178.024 212.183 178.038 211.845 178.031Z" fill="#263238"/>
<path opacity="0.2" d="M321.549 342.837L306.228 345.808C306.228 345.808 289.507 298.15 285.086 296.7C280.665 295.25 214.278 296.497 209.239 289.034C204.199 281.571 201.127 252.601 201.127 252.601L242.346 246.831L245.712 252.652L247.598 255.907L253.753 266.554C253.753 266.554 297.355 272.638 301.918 278.336C304.707 281.835 321.549 342.837 321.549 342.837Z" fill="white"/>
<path d="M222.847 263.806C222.847 263.806 270.677 245.483 283.687 250.563C296.696 255.643 337.875 301.577 337.875 301.577L328.587 313.36C328.587 313.36 286.901 273.733 282.024 271.472C277.146 269.21 228.15 293.83 228.15 293.83L222.847 263.806Z" fill="#263238"/>
<path opacity="0.2" d="M222.847 263.806C222.847 263.806 270.677 245.483 283.687 250.563C296.696 255.643 337.875 301.577 337.875 301.577L328.587 313.36C328.587 313.36 286.901 273.733 282.024 271.472C277.146 269.21 228.15 293.83 228.15 293.83L222.847 263.806Z" fill="white"/>
<path d="M344.74 319.991L348.897 313.015L336.283 301.232L332.146 308.209L344.74 319.991Z" fill="#EEC1BB"/>
<path opacity="0.2" d="M332.146 308.209L336.293 301.243L343.503 307.976L339.082 314.709L332.146 308.209Z" fill="black"/>
<path d="M349.719 312.163C349.719 312.163 349.719 312.163 349.779 312.163C349.782 312.143 349.782 312.123 349.779 312.103C350.374 311.698 350.925 311.233 351.422 310.713C351.828 310.352 352.087 309.854 352.152 309.314C352.142 309.123 352.077 308.938 351.966 308.782C351.854 308.626 351.701 308.505 351.523 308.432C351.417 308.375 351.299 308.345 351.179 308.345C351.058 308.345 350.94 308.375 350.834 308.432C350.317 308.696 349.982 309.598 349.759 310.46C349.673 309.766 349.343 309.126 348.826 308.655C348.688 308.572 348.526 308.538 348.366 308.558C348.206 308.579 348.057 308.652 347.944 308.767C347.836 308.856 347.751 308.97 347.694 309.098C347.638 309.227 347.612 309.367 347.62 309.507C347.62 310.632 349.516 311.981 349.648 312.062L349.708 311.94L349.658 312.072C349.653 312.116 349.653 312.16 349.658 312.204C349.681 312.196 349.702 312.182 349.719 312.163ZM349.577 311.423C349.577 311.498 349.577 311.558 349.577 311.606C348.999 311.109 348.086 310.196 348.066 309.578C348.061 309.502 348.071 309.427 348.095 309.356C348.119 309.284 348.158 309.218 348.208 309.162L348.279 309.101C348.481 308.919 348.623 308.959 348.715 309.02C349.275 309.695 349.58 310.546 349.577 311.423ZM349.972 311.585C350.155 310.48 350.56 309.02 351.067 308.767C351.119 308.739 351.176 308.725 351.235 308.725C351.293 308.725 351.35 308.739 351.402 308.767C351.513 308.817 351.609 308.894 351.681 308.992C351.754 309.089 351.801 309.204 351.818 309.324C351.858 309.872 351.148 310.693 349.972 311.585Z" fill="#407BFF"/>
<path d="M348.512 311.93L342.428 318.683C342.374 318.737 342.331 318.801 342.301 318.872C342.272 318.942 342.257 319.018 342.257 319.094C342.257 319.17 342.272 319.246 342.301 319.317C342.331 319.387 342.374 319.451 342.428 319.505L347.498 324.676C347.636 324.805 347.799 324.905 347.976 324.971C348.153 325.036 348.342 325.066 348.531 325.057C348.72 325.049 348.905 325.003 349.076 324.921C349.247 324.84 349.4 324.726 349.526 324.585C351.625 322.192 352.507 320.945 355.164 317.953C357.66 315.416 359.975 312.705 362.089 309.841C363.945 306.982 361.075 305.228 360.061 306.272C357.597 308.736 352.74 310.744 349.871 311.241C349.351 311.306 348.871 311.549 348.512 311.93Z" fill="#263238"/>
<path d="M330.077 317.091L342.083 303.899L337.074 297.957L324.176 312.691L330.077 317.091Z" fill="#407BFF"/>
<path opacity="0.2" d="M330.077 317.091L342.083 303.899L337.074 297.957L324.176 312.691L330.077 317.091Z" fill="white"/>
<path d="M324.48 356.516C324.48 356.516 324.48 356.516 324.541 356.516H324.601C325.321 356.454 326.031 356.314 326.721 356.1C327.25 355.988 327.717 355.68 328.029 355.238C328.113 355.067 328.148 354.875 328.128 354.685C328.108 354.494 328.035 354.314 327.917 354.163C327.857 354.058 327.772 353.969 327.669 353.903C327.567 353.838 327.45 353.798 327.329 353.788C326.761 353.788 326.021 354.396 325.423 355.015C325.68 354.367 325.701 353.649 325.484 352.987C325.404 352.848 325.279 352.739 325.131 352.678C324.982 352.618 324.817 352.608 324.662 352.652C324.524 352.678 324.393 352.735 324.281 352.82C324.168 352.904 324.077 353.013 324.013 353.139C323.506 354.153 324.46 356.232 324.51 356.343L324.622 356.272L324.5 356.353C324.5 356.353 324.399 356.445 324.399 356.455L324.48 356.516ZM324.733 355.806C324.69 355.854 324.649 355.905 324.612 355.958C324.233 355.159 324.126 354.258 324.307 353.393C324.338 353.325 324.383 353.265 324.439 353.216C324.495 353.167 324.561 353.13 324.632 353.109H324.723C324.987 353.058 325.098 353.159 325.149 353.261C325.311 354.131 325.168 355.03 324.743 355.806H324.733ZM324.987 356.13C325.697 355.269 326.751 354.184 327.319 354.214C327.379 354.217 327.438 354.235 327.49 354.267C327.541 354.299 327.584 354.343 327.613 354.396C327.683 354.494 327.727 354.607 327.741 354.726C327.755 354.845 327.739 354.965 327.694 355.076C327.461 355.552 326.508 355.948 324.997 356.13H324.987Z" fill="#407BFF"/>
<path d="M316.327 360.916L323.365 356.86L317.757 339.795L310.74 343.861L316.327 360.916Z" fill="#EEC1BB"/>
<path opacity="0.2" d="M310.74 343.861L317.767 339.805L320.961 349.56L313.813 353.261L310.74 343.861Z" fill="black"/>
<path d="M323.557 355.725L314.928 358.645C314.855 358.665 314.787 358.699 314.727 358.746C314.668 358.792 314.618 358.851 314.581 358.917C314.544 358.983 314.521 359.056 314.513 359.131C314.504 359.206 314.511 359.282 314.533 359.355L316.429 366.331C316.549 366.687 316.805 366.982 317.141 367.151C317.477 367.32 317.866 367.349 318.224 367.234C321.215 366.169 322.594 365.51 326.386 364.192C328.709 363.401 333.393 362.052 336.405 360.47C339.416 358.888 337.764 355.948 336.354 356.353C332.988 357.307 327.766 356.678 325.028 355.715C324.55 355.556 324.033 355.559 323.557 355.725Z" fill="#263238"/>
<path d="M306.846 351.233L323.77 345.575L322.3 337.939L303.845 344.5L306.846 351.233Z" fill="#407BFF"/>
<path opacity="0.2" d="M306.846 351.233L323.77 345.575L322.3 337.939L303.845 344.5L306.846 351.233Z" fill="white"/>
<path opacity="0.2" d="M232.845 291.508C232.845 291.508 275.433 270.072 283.18 267.172C290.927 264.272 307.577 273.489 310.406 296.274L306.999 292.532C306.999 292.532 303.024 280.091 301.929 278.336C300.833 276.582 280.391 273.55 280.391 273.55C280.391 273.55 248.815 289.379 232.845 291.508Z" fill="black"/>
<path opacity="0.2" d="M247.598 255.907L228.15 261.849C228.15 261.849 239.476 255.481 245.682 252.652L247.598 255.907Z" fill="black"/>
<path d="M192.295 210.104C188.939 211.341 184.305 213.086 181.06 214.424C177.42 215.965 173.272 217.578 170.22 219.798C170.038 219.92 169.936 220.052 170.098 219.798C170.329 219.328 170.461 218.815 170.485 218.292C170.51 217.769 170.426 217.246 170.24 216.756C170.014 216.045 169.529 215.444 168.882 215.073C170.149 215.904 172.451 217.253 173.84 218.054C177.308 220.082 180.938 222.029 184.467 224.138L182.632 229.563C177.268 228.813 172.009 227.453 166.955 225.507C162.899 224.169 159.097 221.623 160.04 216.614C161.55 208.502 181.334 201.769 188.563 199.214L192.295 210.155V210.104Z" fill="#EBC0BB"/>
<path d="M203.814 262.913L196.189 267.192C196.189 267.192 193.147 241.417 190.642 221.39C190.297 218.622 189.963 215.955 189.628 213.491C188.614 205.491 187.752 199.528 187.428 198.443L198.46 194.661C198.46 194.661 206.126 220.396 203.814 262.913Z" fill="#407BFF"/>
<path d="M200.772 190.666C199.301 193.708 200.772 199.113 200.772 199.113L195.306 202.834C195.306 202.834 194.049 201.303 194.444 197.764C194.84 194.225 200.772 190.666 200.772 190.666Z" fill="#407BFF"/>
<path opacity="0.5" d="M200.772 190.666C199.301 193.708 200.772 199.113 200.772 199.113L195.306 202.834C195.306 202.834 194.049 201.303 194.444 197.764C194.84 194.225 200.772 190.666 200.772 190.666Z" fill="white"/>
<path d="M184.375 223.834L190.774 228.174L182.368 233.183C182.368 233.183 177.764 228.275 180.117 225.547L184.375 223.834Z" fill="#EEC1BB"/>
<path d="M192.721 234.207L185.572 238.02L182.368 233.183L190.774 228.174L192.721 234.207Z" fill="#EEC1BB"/>
<path d="M219.673 190.159C219.673 190.159 226.771 196.73 233.869 215.722C239.72 231.327 237.925 248.647 245.976 253.179L243.198 244.732C243.198 244.732 241.504 203.625 228.312 189.48L219.673 190.159Z" fill="#407BFF"/>
<path d="M213.285 188.547C213.285 188.547 217.838 188.77 222.319 194.022L227.389 194.661C223.679 190.842 218.609 188.644 213.285 188.547Z" fill="#407BFF"/>
<path opacity="0.5" d="M213.285 188.547C213.285 188.547 217.838 188.77 222.319 194.022L227.389 194.661C223.679 190.842 218.609 188.644 213.285 188.547Z" fill="white"/>
<path opacity="0.2" d="M190.632 221.39C190.287 218.622 189.953 215.955 189.618 213.491C190.774 210.946 191.737 209.009 191.737 209.009C191.737 209.009 192.954 216.259 190.632 221.39Z" fill="black"/>
<path d="M187.428 198.443C187.428 198.443 177.653 202.499 169.733 206.657L177.845 218.49L190.186 217.567C191.584 214.446 192.068 210.991 191.579 207.606C191.091 204.22 189.651 201.043 187.428 198.443Z" fill="#407BFF"/>
<path opacity="0.1" d="M216.935 179.512C217.058 180.664 216.834 181.827 216.292 182.851C215.75 183.876 214.915 184.715 213.893 185.261C213.373 183.162 212.636 181.123 211.693 179.177L216.854 177.92C216.894 178.498 216.915 178.995 216.935 179.512Z" fill="black"/>
<path d="M227.288 178.437L219.673 176.875L221.752 185.241C221.752 185.241 228.626 186.255 228.981 182.655L227.288 178.437Z" fill="#EEC1BB"/>
<path d="M212.433 179.481L216.661 186.062L221.752 185.241L219.673 176.875L212.433 179.481Z" fill="#EEC1BB"/>
</svg>
